<?xml version="1.0" encoding="UTF-8" standalone="no"?>
<!DOCTYPE svg PUBLIC "-//W3C//DTD SVG 1.1//EN"
 "http://www.w3.org/Graphics/SVG/1.1/DTD/svg11.dtd">
<!-- Generated by graphviz version 2.47.0 (20210316.0004)
 -->
<!-- Title: dependencies Pages: 1 -->
<svg width="2901pt" height="211pt"
 viewBox="0.00 0.00 2901.00 211.00" xmlns="http://www.w3.org/2000/svg" xmlns:xlink="http://www.w3.org/1999/xlink">
<g id="graph0" class="graph" transform="scale(1 1) rotate(0) translate(4 207)">
<title>dependencies</title>
<polygon fill="white" stroke="transparent" points="-4,4 -4,-207 2897,-207 2897,4 -4,4"/>
<text text-anchor="start" x="1425.51" y="-42.4" font-family="Times-12" font-weight="bold" font-size="14.00">Legend</text>
<polygon fill="#ffffb3" stroke="transparent" points="1212.5,-10 1212.5,-30 1232.5,-30 1232.5,-10 1212.5,-10"/>
<text text-anchor="start" x="1236.13" y="-15.4" font-family="Times-12" font-size="14.00"> &#160;Declarations</text>
<polygon fill="#8dd3c7" stroke="transparent" points="1325.5,-10 1325.5,-30 1345.5,-30 1345.5,-10 1325.5,-10"/>
<text text-anchor="start" x="1349.23" y="-15.4" font-family="Times-12" font-size="14.00"> &#160;Module</text>
<polygon fill="#80b1d3" stroke="transparent" points="1411.5,-10 1411.5,-30 1431.5,-30 1431.5,-10 1411.5,-10"/>
<text text-anchor="start" x="1435.28" y="-15.4" font-family="Times-12" font-size="14.00"> &#160;Bootstrap</text>
<polygon fill="#fdb462" stroke="transparent" points="1508.5,-10 1508.5,-30 1528.5,-30 1528.5,-10 1508.5,-10"/>
<text text-anchor="start" x="1532.17" y="-15.4" font-family="Times-12" font-size="14.00"> &#160;Providers</text>
<polygon fill="#fb8072" stroke="transparent" points="1604.5,-10 1604.5,-30 1624.5,-30 1624.5,-10 1604.5,-10"/>
<text text-anchor="start" x="1628.23" y="-15.4" font-family="Times-12" font-size="14.00"> &#160;Exports</text>
<g id="clust1" class="cluster">
<title>cluster_ExamplesModule</title>
<polygon fill="none" stroke="black" stroke-dasharray="1,5" points="8,-70 8,-195 2885,-195 2885,-70 8,-70"/>
</g>
<g id="clust2" class="cluster">
<title>cluster_ExamplesModule_declarations</title>
<polygon fill="none" stroke="black" points="1750,-78 1750,-130 2877,-130 2877,-78 1750,-78"/>
</g>
<g id="clust11" class="cluster">
<title>cluster_ExamplesModule_imports</title>
<polygon fill="none" stroke="black" points="16,-78 16,-130 1742,-130 1742,-78 16,-78"/>
</g>
<!-- LoginComponent -->
<g id="node1" class="node">
<title>LoginComponent</title>
<polygon fill="#ffffb3" stroke="black" points="2869.28,-122 2754.72,-122 2754.72,-86 2869.28,-86 2869.28,-122"/>
<text text-anchor="middle" x="2812" y="-99.8" font-family="Times,serif" font-size="14.00">LoginComponent</text>
</g>
<!-- ExamplesModule -->
<g id="node9" class="node">
<title>ExamplesModule</title>
<polygon fill="#8dd3c7" stroke="black" points="1507.26,-187 1504.26,-191 1483.26,-191 1480.26,-187 1392.74,-187 1392.74,-151 1507.26,-151 1507.26,-187"/>
<text text-anchor="middle" x="1450" y="-164.8" font-family="Times,serif" font-size="14.00">ExamplesModule</text>
</g>
<!-- LoginComponent&#45;&gt;ExamplesModule -->
<g id="edge1" class="edge">
<title>LoginComponent&#45;&gt;ExamplesModule</title>
<path fill="none" stroke="black" d="M2812,-122.15C2812,-145.76 2812,-184 2812,-184 2812,-184 1517.65,-184 1517.65,-184"/>
<polygon fill="black" stroke="black" points="1517.65,-180.5 1507.65,-184 1517.65,-187.5 1517.65,-180.5"/>
</g>
<!-- LandingComponent -->
<g id="node2" class="node">
<title>LandingComponent</title>
<polygon fill="#ffffb3" stroke="black" points="2736.99,-122 2609.01,-122 2609.01,-86 2736.99,-86 2736.99,-122"/>
<text text-anchor="middle" x="2673" y="-99.8" font-family="Times,serif" font-size="14.00">LandingComponent</text>
</g>
<!-- LandingComponent&#45;&gt;ExamplesModule -->
<g id="edge2" class="edge">
<title>LandingComponent&#45;&gt;ExamplesModule</title>
<path fill="none" stroke="black" d="M2673,-122.01C2673,-144.49 2673,-180 2673,-180 2673,-180 1517.35,-180 1517.35,-180"/>
<polygon fill="black" stroke="black" points="1517.35,-176.5 1507.35,-180 1517.35,-183.5 1517.35,-176.5"/>
</g>
<!-- SignupComponent -->
<g id="node3" class="node">
<title>SignupComponent</title>
<polygon fill="#ffffb3" stroke="black" points="2591.51,-122 2470.49,-122 2470.49,-86 2591.51,-86 2591.51,-122"/>
<text text-anchor="middle" x="2531" y="-99.8" font-family="Times,serif" font-size="14.00">SignupComponent</text>
</g>
<!-- SignupComponent&#45;&gt;ExamplesModule -->
<g id="edge3" class="edge">
<title>SignupComponent&#45;&gt;ExamplesModule</title>
<path fill="none" stroke="black" d="M2531,-122.04C2531,-143.66 2531,-177 2531,-177 2531,-177 1517.36,-177 1517.36,-177"/>
<polygon fill="black" stroke="black" points="1517.36,-173.5 1507.36,-177 1517.36,-180.5 1517.36,-173.5"/>
</g>
<!-- ProfileComponent -->
<g id="node4" class="node">
<title>ProfileComponent</title>
<polygon fill="#ffffb3" stroke="black" points="2452.93,-122 2333.07,-122 2333.07,-86 2452.93,-86 2452.93,-122"/>
<text text-anchor="middle" x="2393" y="-99.8" font-family="Times,serif" font-size="14.00">ProfileComponent</text>
</g>
<!-- ProfileComponent&#45;&gt;ExamplesModule -->
<g id="edge4" class="edge">
<title>ProfileComponent&#45;&gt;ExamplesModule</title>
<path fill="none" stroke="black" d="M2393,-122.13C2393,-142.57 2393,-173 2393,-173 2393,-173 1517.57,-173 1517.57,-173"/>
<polygon fill="black" stroke="black" points="1517.57,-169.5 1507.57,-173 1517.57,-176.5 1517.57,-169.5"/>
</g>
<!-- CatComponent -->
<g id="node5" class="node">
<title>CatComponent</title>
<polygon fill="#ffffb3" stroke="black" points="2315.27,-122 2214.73,-122 2214.73,-86 2315.27,-86 2315.27,-122"/>
<text text-anchor="middle" x="2265" y="-99.8" font-family="Times,serif" font-size="14.00">CatComponent</text>
</g>
<!-- CatComponent&#45;&gt;ExamplesModule -->
<g id="edge5" class="edge">
<title>CatComponent&#45;&gt;ExamplesModule</title>
<path fill="none" stroke="black" d="M2265,-122.11C2265,-141.34 2265,-169 2265,-169 2265,-169 1517.31,-169 1517.31,-169"/>
<polygon fill="black" stroke="black" points="1517.31,-165.5 1507.31,-169 1517.31,-172.5 1517.31,-165.5"/>
</g>
<!-- RegisterComponent -->
<g id="node6" class="node">
<title>RegisterComponent</title>
<polygon fill="#ffffb3" stroke="black" points="2196.98,-122 2069.02,-122 2069.02,-86 2196.98,-86 2196.98,-122"/>
<text text-anchor="middle" x="2133" y="-99.8" font-family="Times,serif" font-size="14.00">RegisterComponent</text>
</g>
<!-- RegisterComponent&#45;&gt;ExamplesModule -->
<g id="edge6" class="edge">
<title>RegisterComponent&#45;&gt;ExamplesModule</title>
<path fill="none" stroke="black" d="M2133,-122.27C2133,-140.56 2133,-166 2133,-166 2133,-166 1517.35,-166 1517.35,-166"/>
<polygon fill="black" stroke="black" points="1517.35,-162.5 1507.35,-166 1517.35,-169.5 1517.35,-162.5"/>
</g>
<!-- ReservedComponent -->
<g id="node7" class="node">
<title>ReservedComponent</title>
<polygon fill="#ffffb3" stroke="black" points="2050.92,-122 1917.08,-122 1917.08,-86 2050.92,-86 2050.92,-122"/>
<text text-anchor="middle" x="1984" y="-99.8" font-family="Times,serif" font-size="14.00">ReservedComponent</text>
</g>
<!-- ReservedComponent&#45;&gt;ExamplesModule -->
<g id="edge7" class="edge">
<title>ReservedComponent&#45;&gt;ExamplesModule</title>
<path fill="none" stroke="black" d="M1984,-122.03C1984,-139.06 1984,-162 1984,-162 1984,-162 1517.4,-162 1517.4,-162"/>
<polygon fill="black" stroke="black" points="1517.4,-158.5 1507.4,-162 1517.4,-165.5 1517.4,-158.5"/>
</g>
<!-- ProfileOurComponent -->
<g id="node8" class="node">
<title>ProfileOurComponent</title>
<polygon fill="#ffffb3" stroke="black" points="1899.7,-122 1758.3,-122 1758.3,-86 1899.7,-86 1899.7,-122"/>
<text text-anchor="middle" x="1829" y="-99.8" font-family="Times,serif" font-size="14.00">ProfileOurComponent</text>
</g>
<!-- ProfileOurComponent&#45;&gt;ExamplesModule -->
<g id="edge8" class="edge">
<title>ProfileOurComponent&#45;&gt;ExamplesModule</title>
<path fill="none" stroke="black" d="M1829,-122.01C1829,-138.05 1829,-159 1829,-159 1829,-159 1517.56,-159 1517.56,-159"/>
<polygon fill="black" stroke="black" points="1517.56,-155.5 1507.56,-159 1517.56,-162.5 1517.56,-155.5"/>
</g>
<!-- CommonModule -->
<g id="node10" class="node">
<title>CommonModule</title>
<polygon fill="#8dd3c7" stroke="black" points="1733.67,-122 1730.67,-126 1709.67,-126 1706.67,-122 1622.33,-122 1622.33,-86 1733.67,-86 1733.67,-122"/>
<text text-anchor="middle" x="1678" y="-99.8" font-family="Times,serif" font-size="14.00">CommonModule</text>
</g>
<!-- CommonModule&#45;&gt;ExamplesModule -->
<g id="edge9" class="edge">
<title>CommonModule&#45;&gt;ExamplesModule</title>
<path fill="none" stroke="black" d="M1678,-122.12C1678,-136.78 1678,-155 1678,-155 1678,-155 1517.53,-155 1517.53,-155"/>
<polygon fill="black" stroke="black" points="1517.53,-151.5 1507.53,-155 1517.53,-158.5 1517.53,-151.5"/>
</g>
<!-- FormsModule -->
<g id="node11" class="node">
<title>FormsModule</title>
<polygon fill="#8dd3c7" stroke="black" points="1604.83,-122 1601.83,-126 1580.83,-126 1577.83,-122 1509.17,-122 1509.17,-86 1604.83,-86 1604.83,-122"/>
<text text-anchor="middle" x="1557" y="-99.8" font-family="Times,serif" font-size="14.00">FormsModule</text>
</g>
<!-- FormsModule&#45;&gt;ExamplesModule -->
<g id="edge10" class="edge">
<title>FormsModule&#45;&gt;ExamplesModule</title>
<path fill="none" stroke="black" d="M1509.08,-104C1503.42,-104 1499.6,-104 1499.6,-104 1499.6,-104 1499.6,-140.89 1499.6,-140.89"/>
<polygon fill="black" stroke="black" points="1496.1,-140.89 1499.6,-150.89 1503.1,-140.89 1496.1,-140.89"/>
</g>
<!-- NgbModule -->
<g id="node12" class="node">
<title>NgbModule</title>
<polygon fill="#8dd3c7" stroke="black" points="1491.66,-122 1488.66,-126 1467.66,-126 1464.66,-122 1408.34,-122 1408.34,-86 1491.66,-86 1491.66,-122"/>
<text text-anchor="middle" x="1450" y="-99.8" font-family="Times,serif" font-size="14.00">NgbModule</text>
</g>
<!-- NgbModule&#45;&gt;ExamplesModule -->
<g id="edge11" class="edge">
<title>NgbModule&#45;&gt;ExamplesModule</title>
<path fill="none" stroke="black" d="M1450,-122.11C1450,-122.11 1450,-140.99 1450,-140.99"/>
<polygon fill="black" stroke="black" points="1446.5,-140.99 1450,-150.99 1453.5,-140.99 1446.5,-140.99"/>
</g>
<!-- MatButtonModule -->
<g id="node13" class="node">
<title>MatButtonModule</title>
<polygon fill="#8dd3c7" stroke="black" points="1390.22,-122 1387.22,-126 1366.22,-126 1363.22,-122 1269.78,-122 1269.78,-86 1390.22,-86 1390.22,-122"/>
<text text-anchor="middle" x="1330" y="-99.8" font-family="Times,serif" font-size="14.00">MatButtonModule</text>
</g>
<!-- MatButtonModule&#45;&gt;ExamplesModule -->
<g id="edge12" class="edge">
<title>MatButtonModule&#45;&gt;ExamplesModule</title>
<path fill="none" stroke="black" d="M1390.31,-104C1396.4,-104 1400.4,-104 1400.4,-104 1400.4,-104 1400.4,-140.89 1400.4,-140.89"/>
<polygon fill="black" stroke="black" points="1396.9,-140.89 1400.4,-150.89 1403.9,-140.89 1396.9,-140.89"/>
</g>
<!-- MatInputModule -->
<g id="node14" class="node">
<title>MatInputModule</title>
<polygon fill="#8dd3c7" stroke="black" points="1251.65,-122 1248.65,-126 1227.65,-126 1224.65,-122 1140.35,-122 1140.35,-86 1251.65,-86 1251.65,-122"/>
<text text-anchor="middle" x="1196" y="-99.8" font-family="Times,serif" font-size="14.00">MatInputModule</text>
</g>
<!-- MatInputModule&#45;&gt;ExamplesModule -->
<g id="edge13" class="edge">
<title>MatInputModule&#45;&gt;ExamplesModule</title>
<path fill="none" stroke="black" d="M1196,-122.12C1196,-136.78 1196,-155 1196,-155 1196,-155 1382.68,-155 1382.68,-155"/>
<polygon fill="black" stroke="black" points="1382.68,-158.5 1392.68,-155 1382.68,-151.5 1382.68,-158.5"/>
</g>
<!-- MatCardModule -->
<g id="node15" class="node">
<title>MatCardModule</title>
<polygon fill="#8dd3c7" stroke="black" points="1122.81,-122 1119.81,-126 1098.81,-126 1095.81,-122 1013.19,-122 1013.19,-86 1122.81,-86 1122.81,-122"/>
<text text-anchor="middle" x="1068" y="-99.8" font-family="Times,serif" font-size="14.00">MatCardModule</text>
</g>
<!-- MatCardModule&#45;&gt;ExamplesModule -->
<g id="edge14" class="edge">
<title>MatCardModule&#45;&gt;ExamplesModule</title>
<path fill="none" stroke="black" d="M1068,-122.01C1068,-138.05 1068,-159 1068,-159 1068,-159 1382.4,-159 1382.4,-159"/>
<polygon fill="black" stroke="black" points="1382.4,-162.5 1392.4,-159 1382.4,-155.5 1382.4,-162.5"/>
</g>
<!-- MatIconModule -->
<g id="node16" class="node">
<title>MatIconModule</title>
<polygon fill="#8dd3c7" stroke="black" points="995.47,-122 992.47,-126 971.47,-126 968.47,-122 888.53,-122 888.53,-86 995.47,-86 995.47,-122"/>
<text text-anchor="middle" x="942" y="-99.8" font-family="Times,serif" font-size="14.00">MatIconModule</text>
</g>
<!-- MatIconModule&#45;&gt;ExamplesModule -->
<g id="edge15" class="edge">
<title>MatIconModule&#45;&gt;ExamplesModule</title>
<path fill="none" stroke="black" d="M942,-122.03C942,-139.06 942,-162 942,-162 942,-162 1382.71,-162 1382.71,-162"/>
<polygon fill="black" stroke="black" points="1382.71,-165.5 1392.71,-162 1382.71,-158.5 1382.71,-165.5"/>
</g>
<!-- MatDatepickerModule -->
<g id="node17" class="node">
<title>MatDatepickerModule</title>
<polygon fill="#8dd3c7" stroke="black" points="870.51,-122 867.51,-126 846.51,-126 843.51,-122 727.49,-122 727.49,-86 870.51,-86 870.51,-122"/>
<text text-anchor="middle" x="799" y="-99.8" font-family="Times,serif" font-size="14.00">MatDatepickerModule</text>
</g>
<!-- MatDatepickerModule&#45;&gt;ExamplesModule -->
<g id="edge16" class="edge">
<title>MatDatepickerModule&#45;&gt;ExamplesModule</title>
<path fill="none" stroke="black" d="M799,-122.27C799,-140.56 799,-166 799,-166 799,-166 1382.51,-166 1382.51,-166"/>
<polygon fill="black" stroke="black" points="1382.51,-169.5 1392.51,-166 1382.51,-162.5 1382.51,-169.5"/>
</g>
<!-- MatNativeDateModule -->
<g id="node18" class="node">
<title>MatNativeDateModule</title>
<polygon fill="#8dd3c7" stroke="black" points="708.84,-122 705.84,-126 684.84,-126 681.84,-122 563.16,-122 563.16,-86 708.84,-86 708.84,-122"/>
<text text-anchor="middle" x="636" y="-99.8" font-family="Times,serif" font-size="14.00">MatNativeDateModule</text>
</g>
<!-- MatNativeDateModule&#45;&gt;ExamplesModule -->
<g id="edge17" class="edge">
<title>MatNativeDateModule&#45;&gt;ExamplesModule</title>
<path fill="none" stroke="black" d="M636,-122.11C636,-141.34 636,-169 636,-169 636,-169 1382.44,-169 1382.44,-169"/>
<polygon fill="black" stroke="black" points="1382.44,-172.5 1392.44,-169 1382.44,-165.5 1382.44,-172.5"/>
</g>
<!-- JsonPipe -->
<g id="node19" class="node">
<title>JsonPipe</title>
<polygon fill="#8dd3c7" stroke="black" points="544.78,-122 541.78,-126 520.78,-126 517.78,-122 479.22,-122 479.22,-86 544.78,-86 544.78,-122"/>
<text text-anchor="middle" x="512" y="-99.8" font-family="Times,serif" font-size="14.00">JsonPipe</text>
</g>
<!-- JsonPipe&#45;&gt;ExamplesModule -->
<g id="edge18" class="edge">
<title>JsonPipe&#45;&gt;ExamplesModule</title>
<path fill="none" stroke="black" d="M512,-122.13C512,-142.57 512,-173 512,-173 512,-173 1382.74,-173 1382.74,-173"/>
<polygon fill="black" stroke="black" points="1382.74,-176.5 1392.74,-173 1382.74,-169.5 1382.74,-176.5"/>
</g>
<!-- MatFormFieldModule -->
<g id="node20" class="node">
<title>MatFormFieldModule</title>
<polygon fill="#8dd3c7" stroke="black" points="461.71,-122 458.71,-126 437.71,-126 434.71,-122 320.29,-122 320.29,-86 461.71,-86 461.71,-122"/>
<text text-anchor="middle" x="391" y="-99.8" font-family="Times,serif" font-size="14.00">MatFormFieldModule</text>
</g>
<!-- MatFormFieldModule&#45;&gt;ExamplesModule -->
<g id="edge19" class="edge">
<title>MatFormFieldModule&#45;&gt;ExamplesModule</title>
<path fill="none" stroke="black" d="M391,-122.04C391,-143.66 391,-177 391,-177 391,-177 1382.69,-177 1382.69,-177"/>
<polygon fill="black" stroke="black" points="1382.69,-180.5 1392.69,-177 1382.69,-173.5 1382.69,-180.5"/>
</g>
<!-- ReactiveFormsModule -->
<g id="node21" class="node">
<title>ReactiveFormsModule</title>
<polygon fill="#8dd3c7" stroke="black" points="302.3,-122 299.3,-126 278.3,-126 275.3,-122 157.7,-122 157.7,-86 302.3,-86 302.3,-122"/>
<text text-anchor="middle" x="230" y="-99.8" font-family="Times,serif" font-size="14.00">ReactiveFormsModule</text>
</g>
<!-- ReactiveFormsModule&#45;&gt;ExamplesModule -->
<g id="edge20" class="edge">
<title>ReactiveFormsModule&#45;&gt;ExamplesModule</title>
<path fill="none" stroke="black" d="M230,-122.01C230,-144.49 230,-180 230,-180 230,-180 1382.39,-180 1382.39,-180"/>
<polygon fill="black" stroke="black" points="1382.39,-183.5 1392.39,-180 1382.39,-176.5 1382.39,-183.5"/>
</g>
<!-- MatSelectModule -->
<g id="node22" class="node">
<title>MatSelectModule</title>
<polygon fill="#8dd3c7" stroke="black" points="140.31,-122 137.31,-126 116.31,-126 113.31,-122 23.69,-122 23.69,-86 140.31,-86 140.31,-122"/>
<text text-anchor="middle" x="82" y="-99.8" font-family="Times,serif" font-size="14.00">MatSelectModule</text>
</g>
<!-- MatSelectModule&#45;&gt;ExamplesModule -->
<g id="edge21" class="edge">
<title>MatSelectModule&#45;&gt;ExamplesModule</title>
<path fill="none" stroke="black" d="M82,-122.15C82,-145.76 82,-184 82,-184 82,-184 1382.53,-184 1382.53,-184"/>
<polygon fill="black" stroke="black" points="1382.53,-187.5 1392.53,-184 1382.53,-180.5 1382.53,-187.5"/>
</g>
</g>
</svg>
