<?xml version="1.0" encoding="UTF-8" standalone="no"?>
<!DOCTYPE svg PUBLIC "-//W3C//DTD SVG 1.1//EN"
 "http://www.w3.org/Graphics/SVG/1.1/DTD/svg11.dtd">
<!-- Generated by graphviz version 2.47.0 (20210316.0004)
 -->
<!-- Title: dependencies Pages: 1 -->
<svg width="2880pt" height="284pt"
 viewBox="0.00 0.00 2880.00 284.00" xmlns="http://www.w3.org/2000/svg" xmlns:xlink="http://www.w3.org/1999/xlink">
<g id="graph0" class="graph" transform="scale(1 1) rotate(0) translate(4 280)">
<title>dependencies</title>
<polygon fill="white" stroke="transparent" points="-4,4 -4,-280 2876,-280 2876,4 -4,4"/>
<text text-anchor="start" x="1415.01" y="-42.4" font-family="Times-12" font-weight="bold" font-size="14.00">Legend</text>
<polygon fill="#ffffb3" stroke="transparent" points="1202,-10 1202,-30 1222,-30 1222,-10 1202,-10"/>
<text text-anchor="start" x="1225.63" y="-15.4" font-family="Times-12" font-size="14.00"> &#160;Declarations</text>
<polygon fill="#8dd3c7" stroke="transparent" points="1315,-10 1315,-30 1335,-30 1335,-10 1315,-10"/>
<text text-anchor="start" x="1338.73" y="-15.4" font-family="Times-12" font-size="14.00"> &#160;Module</text>
<polygon fill="#80b1d3" stroke="transparent" points="1401,-10 1401,-30 1421,-30 1421,-10 1401,-10"/>
<text text-anchor="start" x="1424.78" y="-15.4" font-family="Times-12" font-size="14.00"> &#160;Bootstrap</text>
<polygon fill="#fdb462" stroke="transparent" points="1498,-10 1498,-30 1518,-30 1518,-10 1498,-10"/>
<text text-anchor="start" x="1521.67" y="-15.4" font-family="Times-12" font-size="14.00"> &#160;Providers</text>
<polygon fill="#fb8072" stroke="transparent" points="1594,-10 1594,-30 1614,-30 1614,-10 1594,-10"/>
<text text-anchor="start" x="1617.73" y="-15.4" font-family="Times-12" font-size="14.00"> &#160;Exports</text>
<g id="clust1" class="cluster">
<title>cluster_AppModule</title>
<polygon fill="none" stroke="black" stroke-dasharray="1,5" points="8,-70 8,-268 2864,-268 2864,-70 8,-70"/>
</g>
<g id="clust2" class="cluster">
<title>cluster_AppModule_declarations</title>
<polygon fill="none" stroke="black" points="2458,-78 2458,-130 2856,-130 2856,-78 2458,-78"/>
</g>
<g id="clust6" class="cluster">
<title>cluster_AppModule_imports</title>
<polygon fill="none" stroke="black" points="156,-78 156,-130 2450,-130 2450,-78 156,-78"/>
</g>
<g id="clust8" class="cluster">
<title>cluster_AppModule_bootstrap</title>
<polygon fill="none" stroke="black" points="1438,-208 1438,-260 1562,-260 1562,-208 1438,-208"/>
</g>
<g id="clust9" class="cluster">
<title>cluster_AppModule_providers</title>
<polygon fill="none" stroke="black" points="16,-78 16,-130 148,-130 148,-78 16,-78"/>
</g>
<!-- AppComponent -->
<g id="node1" class="node">
<title>AppComponent</title>
<polygon fill="#ffffb3" stroke="black" points="2847.94,-122 2742.06,-122 2742.06,-86 2847.94,-86 2847.94,-122"/>
<text text-anchor="middle" x="2795" y="-99.8" font-family="Times,serif" font-size="14.00">AppComponent</text>
</g>
<!-- AppModule -->
<g id="node4" class="node">
<title>AppModule</title>
<polygon fill="#8dd3c7" stroke="black" points="1541.66,-187 1538.66,-191 1517.66,-191 1514.66,-187 1458.34,-187 1458.34,-151 1541.66,-151 1541.66,-187"/>
<text text-anchor="middle" x="1500" y="-164.8" font-family="Times,serif" font-size="14.00">AppModule</text>
</g>
<!-- AppComponent&#45;&gt;AppModule -->
<g id="edge1" class="edge">
<title>AppComponent&#45;&gt;AppModule</title>
<path fill="none" stroke="black" d="M2795,-122.15C2795,-145.76 2795,-184 2795,-184 2795,-184 1551.98,-184 1551.98,-184"/>
<polygon fill="black" stroke="black" points="1551.98,-180.5 1541.98,-184 1551.98,-187.5 1551.98,-180.5"/>
</g>
<!-- NavbarComponent -->
<g id="node2" class="node">
<title>NavbarComponent</title>
<polygon fill="#ffffb3" stroke="black" points="2724.03,-122 2601.97,-122 2601.97,-86 2724.03,-86 2724.03,-122"/>
<text text-anchor="middle" x="2663" y="-99.8" font-family="Times,serif" font-size="14.00">NavbarComponent</text>
</g>
<!-- NavbarComponent&#45;&gt;AppModule -->
<g id="edge2" class="edge">
<title>NavbarComponent&#45;&gt;AppModule</title>
<path fill="none" stroke="black" d="M2663,-122.25C2663,-145.02 2663,-181 2663,-181 2663,-181 1551.73,-181 1551.73,-181"/>
<polygon fill="black" stroke="black" points="1551.73,-177.5 1541.73,-181 1551.73,-184.5 1551.73,-177.5"/>
</g>
<!-- FooterComponent -->
<g id="node3" class="node">
<title>FooterComponent</title>
<polygon fill="#ffffb3" stroke="black" points="2583.88,-122 2466.12,-122 2466.12,-86 2583.88,-86 2583.88,-122"/>
<text text-anchor="middle" x="2525" y="-99.8" font-family="Times,serif" font-size="14.00">FooterComponent</text>
</g>
<!-- FooterComponent&#45;&gt;AppModule -->
<g id="edge3" class="edge">
<title>FooterComponent&#45;&gt;AppModule</title>
<path fill="none" stroke="black" d="M2525,-122.29C2525,-144.21 2525,-178 2525,-178 2525,-178 1551.77,-178 1551.77,-178"/>
<polygon fill="black" stroke="black" points="1551.77,-174.5 1541.77,-178 1551.77,-181.5 1551.77,-174.5"/>
</g>
<!-- AppComponent  -->
<g id="node22" class="node">
<title>AppComponent </title>
<polygon fill="#80b1d3" stroke="black" points="1554.44,-252 1445.56,-252 1445.56,-216 1554.44,-216 1554.44,-252"/>
<text text-anchor="middle" x="1500" y="-229.8" font-family="Times,serif" font-size="14.00">AppComponent </text>
</g>
<!-- AppModule&#45;&gt;AppComponent  -->
<g id="edge21" class="edge">
<title>AppModule&#45;&gt;AppComponent </title>
<path fill="none" stroke="black" stroke-dasharray="1,5" d="M1500,-187.11C1500,-187.11 1500,-205.99 1500,-205.99"/>
<polygon fill="black" stroke="black" points="1496.5,-205.99 1500,-215.99 1503.5,-205.99 1496.5,-205.99"/>
</g>
<!-- BrowserModule -->
<g id="node5" class="node">
<title>BrowserModule</title>
<polygon fill="#8dd3c7" stroke="black" points="2442.47,-122 2439.47,-126 2418.47,-126 2415.47,-122 2335.53,-122 2335.53,-86 2442.47,-86 2442.47,-122"/>
<text text-anchor="middle" x="2389" y="-99.8" font-family="Times,serif" font-size="14.00">BrowserModule</text>
</g>
<!-- BrowserModule&#45;&gt;AppModule -->
<g id="edge4" class="edge">
<title>BrowserModule&#45;&gt;AppModule</title>
<path fill="none" stroke="black" d="M2389,-122.03C2389,-142.77 2389,-174 2389,-174 2389,-174 1551.69,-174 1551.69,-174"/>
<polygon fill="black" stroke="black" points="1551.69,-170.5 1541.69,-174 1551.69,-177.5 1551.69,-170.5"/>
</g>
<!-- NgbModule -->
<g id="node6" class="node">
<title>NgbModule</title>
<polygon fill="#8dd3c7" stroke="black" points="2317.66,-122 2314.66,-126 2293.66,-126 2290.66,-122 2234.34,-122 2234.34,-86 2317.66,-86 2317.66,-122"/>
<text text-anchor="middle" x="2276" y="-99.8" font-family="Times,serif" font-size="14.00">NgbModule</text>
</g>
<!-- NgbModule&#45;&gt;AppModule -->
<g id="edge5" class="edge">
<title>NgbModule&#45;&gt;AppModule</title>
<path fill="none" stroke="black" d="M2276,-122.31C2276,-142.15 2276,-171 2276,-171 2276,-171 1551.72,-171 1551.72,-171"/>
<polygon fill="black" stroke="black" points="1551.72,-167.5 1541.72,-171 1551.72,-174.5 1551.72,-167.5"/>
</g>
<!-- FormsModule -->
<g id="node7" class="node">
<title>FormsModule</title>
<polygon fill="#8dd3c7" stroke="black" points="2216.83,-122 2213.83,-126 2192.83,-126 2189.83,-122 2121.17,-122 2121.17,-86 2216.83,-86 2216.83,-122"/>
<text text-anchor="middle" x="2169" y="-99.8" font-family="Times,serif" font-size="14.00">FormsModule</text>
</g>
<!-- FormsModule&#45;&gt;AppModule -->
<g id="edge6" class="edge">
<title>FormsModule&#45;&gt;AppModule</title>
<path fill="none" stroke="black" d="M2169,-122.17C2169,-141.09 2169,-168 2169,-168 2169,-168 1551.85,-168 1551.85,-168"/>
<polygon fill="black" stroke="black" points="1551.85,-164.5 1541.85,-168 1551.85,-171.5 1551.85,-164.5"/>
</g>
<!-- RouterModule -->
<g id="node8" class="node">
<title>RouterModule</title>
<polygon fill="#8dd3c7" stroke="black" points="2103.65,-122 2100.65,-126 2079.65,-126 2076.65,-122 2006.35,-122 2006.35,-86 2103.65,-86 2103.65,-122"/>
<text text-anchor="middle" x="2055" y="-99.8" font-family="Times,serif" font-size="14.00">RouterModule</text>
</g>
<!-- RouterModule&#45;&gt;AppModule -->
<g id="edge7" class="edge">
<title>RouterModule&#45;&gt;AppModule</title>
<path fill="none" stroke="black" d="M2055,-122.3C2055,-140.27 2055,-165 2055,-165 2055,-165 1551.72,-165 1551.72,-165"/>
<polygon fill="black" stroke="black" points="1551.72,-161.5 1541.72,-165 1551.72,-168.5 1551.72,-161.5"/>
</g>
<!-- ComponentsModule -->
<g id="node9" class="node">
<title>ComponentsModule</title>
<polygon fill="#8dd3c7" stroke="black" points="1988.33,-122 1985.33,-126 1964.33,-126 1961.33,-122 1857.67,-122 1857.67,-86 1988.33,-86 1988.33,-122"/>
<text text-anchor="middle" x="1923" y="-99.8" font-family="Times,serif" font-size="14.00">ComponentsModule</text>
</g>
<!-- ComponentsModule&#45;&gt;AppModule -->
<g id="edge8" class="edge">
<title>ComponentsModule&#45;&gt;AppModule</title>
<path fill="none" stroke="black" d="M1923,-122.04C1923,-138.73 1923,-161 1923,-161 1923,-161 1551.72,-161 1551.72,-161"/>
<polygon fill="black" stroke="black" points="1551.72,-157.5 1541.72,-161 1551.72,-164.5 1551.72,-157.5"/>
</g>
<!-- ExamplesModule -->
<g id="node10" class="node">
<title>ExamplesModule</title>
<polygon fill="#8dd3c7" stroke="black" points="1839.26,-122 1836.26,-126 1815.26,-126 1812.26,-122 1724.74,-122 1724.74,-86 1839.26,-86 1839.26,-122"/>
<text text-anchor="middle" x="1782" y="-99.8" font-family="Times,serif" font-size="14.00">ExamplesModule</text>
</g>
<!-- ExamplesModule&#45;&gt;AppModule -->
<g id="edge9" class="edge">
<title>ExamplesModule&#45;&gt;AppModule</title>
<path fill="none" stroke="black" d="M1782,-122.28C1782,-137.95 1782,-158 1782,-158 1782,-158 1551.91,-158 1551.91,-158"/>
<polygon fill="black" stroke="black" points="1551.91,-154.5 1541.91,-158 1551.91,-161.5 1551.91,-154.5"/>
</g>
<!-- AppRoutingModule -->
<g id="node11" class="node">
<title>AppRoutingModule</title>
<polygon fill="#8dd3c7" stroke="black" points="1706.27,-122 1703.27,-126 1682.27,-126 1679.27,-122 1577.73,-122 1577.73,-86 1706.27,-86 1706.27,-122"/>
<text text-anchor="middle" x="1642" y="-99.8" font-family="Times,serif" font-size="14.00">AppRoutingModule</text>
</g>
<!-- AppRoutingModule&#45;&gt;AppModule -->
<g id="edge10" class="edge">
<title>AppRoutingModule&#45;&gt;AppModule</title>
<path fill="none" stroke="black" d="M1642,-122.12C1642,-136.78 1642,-155 1642,-155 1642,-155 1551.84,-155 1551.84,-155"/>
<polygon fill="black" stroke="black" points="1551.84,-151.5 1541.84,-155 1551.84,-158.5 1551.84,-151.5"/>
</g>
<!-- HttpClientModule -->
<g id="node12" class="node">
<title>HttpClientModule</title>
<polygon fill="#8dd3c7" stroke="black" points="1559.16,-122 1556.16,-126 1535.16,-126 1532.16,-122 1440.84,-122 1440.84,-86 1559.16,-86 1559.16,-122"/>
<text text-anchor="middle" x="1500" y="-99.8" font-family="Times,serif" font-size="14.00">HttpClientModule</text>
</g>
<!-- HttpClientModule&#45;&gt;AppModule -->
<g id="edge11" class="edge">
<title>HttpClientModule&#45;&gt;AppModule</title>
<path fill="none" stroke="black" d="M1500,-122.11C1500,-122.11 1500,-140.99 1500,-140.99"/>
<polygon fill="black" stroke="black" points="1496.5,-140.99 1500,-150.99 1503.5,-140.99 1496.5,-140.99"/>
</g>
<!-- BrowserAnimationsModule -->
<g id="node13" class="node">
<title>BrowserAnimationsModule</title>
<polygon fill="#8dd3c7" stroke="black" points="1423.3,-122 1420.3,-126 1399.3,-126 1396.3,-122 1250.7,-122 1250.7,-86 1423.3,-86 1423.3,-122"/>
<text text-anchor="middle" x="1337" y="-99.8" font-family="Times,serif" font-size="14.00">BrowserAnimationsModule</text>
</g>
<!-- BrowserAnimationsModule&#45;&gt;AppModule -->
<g id="edge12" class="edge">
<title>BrowserAnimationsModule&#45;&gt;AppModule</title>
<path fill="none" stroke="black" d="M1337,-122.12C1337,-136.78 1337,-155 1337,-155 1337,-155 1448.02,-155 1448.02,-155"/>
<polygon fill="black" stroke="black" points="1448.02,-158.5 1458.02,-155 1448.02,-151.5 1448.02,-158.5"/>
</g>
<!-- MatButtonModule -->
<g id="node14" class="node">
<title>MatButtonModule</title>
<polygon fill="#8dd3c7" stroke="black" points="1233.22,-122 1230.22,-126 1209.22,-126 1206.22,-122 1112.78,-122 1112.78,-86 1233.22,-86 1233.22,-122"/>
<text text-anchor="middle" x="1173" y="-99.8" font-family="Times,serif" font-size="14.00">MatButtonModule</text>
</g>
<!-- MatButtonModule&#45;&gt;AppModule -->
<g id="edge13" class="edge">
<title>MatButtonModule&#45;&gt;AppModule</title>
<path fill="none" stroke="black" d="M1173,-122.28C1173,-137.95 1173,-158 1173,-158 1173,-158 1448.25,-158 1448.25,-158"/>
<polygon fill="black" stroke="black" points="1448.25,-161.5 1458.25,-158 1448.25,-154.5 1448.25,-161.5"/>
</g>
<!-- MatInputModule -->
<g id="node15" class="node">
<title>MatInputModule</title>
<polygon fill="#8dd3c7" stroke="black" points="1094.65,-122 1091.65,-126 1070.65,-126 1067.65,-122 983.35,-122 983.35,-86 1094.65,-86 1094.65,-122"/>
<text text-anchor="middle" x="1039" y="-99.8" font-family="Times,serif" font-size="14.00">MatInputModule</text>
</g>
<!-- MatInputModule&#45;&gt;AppModule -->
<g id="edge14" class="edge">
<title>MatInputModule&#45;&gt;AppModule</title>
<path fill="none" stroke="black" d="M1039,-122.04C1039,-138.73 1039,-161 1039,-161 1039,-161 1448.28,-161 1448.28,-161"/>
<polygon fill="black" stroke="black" points="1448.28,-164.5 1458.28,-161 1448.28,-157.5 1448.28,-164.5"/>
</g>
<!-- MatCardModule -->
<g id="node16" class="node">
<title>MatCardModule</title>
<polygon fill="#8dd3c7" stroke="black" points="965.81,-122 962.81,-126 941.81,-126 938.81,-122 856.19,-122 856.19,-86 965.81,-86 965.81,-122"/>
<text text-anchor="middle" x="911" y="-99.8" font-family="Times,serif" font-size="14.00">MatCardModule</text>
</g>
<!-- MatCardModule&#45;&gt;AppModule -->
<g id="edge15" class="edge">
<title>MatCardModule&#45;&gt;AppModule</title>
<path fill="none" stroke="black" d="M911,-122.3C911,-140.27 911,-165 911,-165 911,-165 1448.11,-165 1448.11,-165"/>
<polygon fill="black" stroke="black" points="1448.11,-168.5 1458.11,-165 1448.11,-161.5 1448.11,-168.5"/>
</g>
<!-- MatNativeDateModule -->
<g id="node17" class="node">
<title>MatNativeDateModule</title>
<polygon fill="#8dd3c7" stroke="black" points="837.84,-122 834.84,-126 813.84,-126 810.84,-122 692.16,-122 692.16,-86 837.84,-86 837.84,-122"/>
<text text-anchor="middle" x="765" y="-99.8" font-family="Times,serif" font-size="14.00">MatNativeDateModule</text>
</g>
<!-- MatNativeDateModule&#45;&gt;AppModule -->
<g id="edge16" class="edge">
<title>MatNativeDateModule&#45;&gt;AppModule</title>
<path fill="none" stroke="black" d="M765,-122.17C765,-141.09 765,-168 765,-168 765,-168 1448.11,-168 1448.11,-168"/>
<polygon fill="black" stroke="black" points="1448.11,-171.5 1458.11,-168 1448.11,-164.5 1448.11,-171.5"/>
</g>
<!-- MatIconModule -->
<g id="node18" class="node">
<title>MatIconModule</title>
<polygon fill="#8dd3c7" stroke="black" points="674.47,-122 671.47,-126 650.47,-126 647.47,-122 567.53,-122 567.53,-86 674.47,-86 674.47,-122"/>
<text text-anchor="middle" x="621" y="-99.8" font-family="Times,serif" font-size="14.00">MatIconModule</text>
</g>
<!-- MatIconModule&#45;&gt;AppModule -->
<g id="edge17" class="edge">
<title>MatIconModule&#45;&gt;AppModule</title>
<path fill="none" stroke="black" d="M621,-122.31C621,-142.15 621,-171 621,-171 621,-171 1448.2,-171 1448.2,-171"/>
<polygon fill="black" stroke="black" points="1448.2,-174.5 1458.2,-171 1448.2,-167.5 1448.2,-174.5"/>
</g>
<!-- JsonPipe -->
<g id="node19" class="node">
<title>JsonPipe</title>
<polygon fill="#8dd3c7" stroke="black" points="549.78,-122 546.78,-126 525.78,-126 522.78,-122 484.22,-122 484.22,-86 549.78,-86 549.78,-122"/>
<text text-anchor="middle" x="517" y="-99.8" font-family="Times,serif" font-size="14.00">JsonPipe</text>
</g>
<!-- JsonPipe&#45;&gt;AppModule -->
<g id="edge18" class="edge">
<title>JsonPipe&#45;&gt;AppModule</title>
<path fill="none" stroke="black" d="M517,-122.03C517,-142.77 517,-174 517,-174 517,-174 1448.08,-174 1448.08,-174"/>
<polygon fill="black" stroke="black" points="1448.08,-177.5 1458.08,-174 1448.08,-170.5 1448.08,-177.5"/>
</g>
<!-- MatFormFieldModule -->
<g id="node20" class="node">
<title>MatFormFieldModule</title>
<polygon fill="#8dd3c7" stroke="black" points="466.71,-122 463.71,-126 442.71,-126 439.71,-122 325.29,-122 325.29,-86 466.71,-86 466.71,-122"/>
<text text-anchor="middle" x="396" y="-99.8" font-family="Times,serif" font-size="14.00">MatFormFieldModule</text>
</g>
<!-- MatFormFieldModule&#45;&gt;AppModule -->
<g id="edge19" class="edge">
<title>MatFormFieldModule&#45;&gt;AppModule</title>
<path fill="none" stroke="black" d="M396,-122.29C396,-144.21 396,-178 396,-178 396,-178 1448.07,-178 1448.07,-178"/>
<polygon fill="black" stroke="black" points="1448.07,-181.5 1458.07,-178 1448.07,-174.5 1448.07,-181.5"/>
</g>
<!-- MatDatepickerModule -->
<g id="node21" class="node">
<title>MatDatepickerModule</title>
<polygon fill="#8dd3c7" stroke="black" points="307.51,-122 304.51,-126 283.51,-126 280.51,-122 164.49,-122 164.49,-86 307.51,-86 307.51,-122"/>
<text text-anchor="middle" x="236" y="-99.8" font-family="Times,serif" font-size="14.00">MatDatepickerModule</text>
</g>
<!-- MatDatepickerModule&#45;&gt;AppModule -->
<g id="edge20" class="edge">
<title>MatDatepickerModule&#45;&gt;AppModule</title>
<path fill="none" stroke="black" d="M236,-122.25C236,-145.02 236,-181 236,-181 236,-181 1448.3,-181 1448.3,-181"/>
<polygon fill="black" stroke="black" points="1448.3,-184.5 1458.3,-181 1448.3,-177.5 1448.3,-184.5"/>
</g>
<!-- UserService -->
<g id="node23" class="node">
<title>UserService</title>
<ellipse fill="#fdb462" stroke="black" cx="82" cy="-104" rx="58.44" ry="18"/>
<text text-anchor="middle" x="82" y="-99.8" font-family="Times,serif" font-size="14.00">UserService</text>
</g>
<!-- UserService&#45;&gt;AppModule -->
<g id="edge22" class="edge">
<title>UserService&#45;&gt;AppModule</title>
<path fill="none" stroke="black" d="M82,-122.15C82,-145.76 82,-184 82,-184 82,-184 1448.33,-184 1448.33,-184"/>
<polygon fill="black" stroke="black" points="1448.33,-187.5 1458.33,-184 1448.33,-180.5 1448.33,-187.5"/>
</g>
</g>
</svg>
