<?xml version="1.0" encoding="UTF-8" standalone="no"?>
<!DOCTYPE svg PUBLIC "-//W3C//DTD SVG 1.1//EN"
 "http://www.w3.org/Graphics/SVG/1.1/DTD/svg11.dtd">
<!-- Generated by graphviz version 2.47.0 (20210316.0004)
 -->
<!-- Title: dependencies Pages: 1 -->
<svg width="2179pt" height="284pt"
 viewBox="0.00 0.00 2179.00 284.00" xmlns="http://www.w3.org/2000/svg" xmlns:xlink="http://www.w3.org/1999/xlink">
<g id="graph0" class="graph" transform="scale(1 1) rotate(0) translate(4 280)">
<title>dependencies</title>
<polygon fill="white" stroke="transparent" points="-4,4 -4,-280 2175,-280 2175,4 -4,4"/>
<text text-anchor="start" x="1064.51" y="-42.4" font-family="Times-12" font-weight="bold" font-size="14.00">Legend</text>
<polygon fill="#ffffb3" stroke="transparent" points="851.5,-10 851.5,-30 871.5,-30 871.5,-10 851.5,-10"/>
<text text-anchor="start" x="875.13" y="-15.4" font-family="Times-12" font-size="14.00"> &#160;Declarations</text>
<polygon fill="#8dd3c7" stroke="transparent" points="964.5,-10 964.5,-30 984.5,-30 984.5,-10 964.5,-10"/>
<text text-anchor="start" x="988.23" y="-15.4" font-family="Times-12" font-size="14.00"> &#160;Module</text>
<polygon fill="#80b1d3" stroke="transparent" points="1050.5,-10 1050.5,-30 1070.5,-30 1070.5,-10 1050.5,-10"/>
<text text-anchor="start" x="1074.28" y="-15.4" font-family="Times-12" font-size="14.00"> &#160;Bootstrap</text>
<polygon fill="#fdb462" stroke="transparent" points="1147.5,-10 1147.5,-30 1167.5,-30 1167.5,-10 1147.5,-10"/>
<text text-anchor="start" x="1171.17" y="-15.4" font-family="Times-12" font-size="14.00"> &#160;Providers</text>
<polygon fill="#fb8072" stroke="transparent" points="1243.5,-10 1243.5,-30 1263.5,-30 1263.5,-10 1243.5,-10"/>
<text text-anchor="start" x="1267.23" y="-15.4" font-family="Times-12" font-size="14.00"> &#160;Exports</text>
<g id="clust1" class="cluster">
<title>cluster_ComponentsModule</title>
<polygon fill="none" stroke="black" stroke-dasharray="1,5" points="8,-70 8,-268 2163,-268 2163,-70 8,-70"/>
</g>
<g id="clust12" class="cluster">
<title>cluster_ComponentsModule_exports</title>
<polygon fill="none" stroke="black" points="892,-208 892,-260 1064,-260 1064,-208 892,-208"/>
</g>
<g id="clust2" class="cluster">
<title>cluster_ComponentsModule_declarations</title>
<polygon fill="none" stroke="black" points="828,-78 828,-130 2155,-130 2155,-78 828,-78"/>
</g>
<g id="clust11" class="cluster">
<title>cluster_ComponentsModule_imports</title>
<polygon fill="none" stroke="black" points="16,-78 16,-130 820,-130 820,-78 16,-78"/>
</g>
<!-- ComponentsComponent -->
<g id="node1" class="node">
<title>ComponentsComponent</title>
<polygon fill="#ffffb3" stroke="black" points="2147.11,-122 1994.89,-122 1994.89,-86 2147.11,-86 2147.11,-122"/>
<text text-anchor="middle" x="2071" y="-99.8" font-family="Times,serif" font-size="14.00">ComponentsComponent</text>
</g>
<!-- ComponentsModule -->
<g id="node9" class="node">
<title>ComponentsModule</title>
<polygon fill="#8dd3c7" stroke="black" points="1043.33,-187 1040.33,-191 1019.33,-191 1016.33,-187 912.67,-187 912.67,-151 1043.33,-151 1043.33,-187"/>
<text text-anchor="middle" x="978" y="-164.8" font-family="Times,serif" font-size="14.00">ComponentsModule</text>
</g>
<!-- ComponentsComponent&#45;&gt;ComponentsModule -->
<g id="edge1" class="edge">
<title>ComponentsComponent&#45;&gt;ComponentsModule</title>
<path fill="none" stroke="black" d="M2071,-122.09C2071,-145.13 2071,-182 2071,-182 2071,-182 1053.5,-182 1053.5,-182"/>
<polygon fill="black" stroke="black" points="1053.5,-178.5 1043.5,-182 1053.5,-185.5 1053.5,-178.5"/>
</g>
<!-- BasicelementsComponent -->
<g id="node2" class="node">
<title>BasicelementsComponent</title>
<polygon fill="#ffffb3" stroke="black" points="1977.19,-122 1814.81,-122 1814.81,-86 1977.19,-86 1977.19,-122"/>
<text text-anchor="middle" x="1896" y="-99.8" font-family="Times,serif" font-size="14.00">BasicelementsComponent</text>
</g>
<!-- BasicelementsComponent&#45;&gt;ComponentsModule -->
<g id="edge2" class="edge">
<title>BasicelementsComponent&#45;&gt;ComponentsModule</title>
<path fill="none" stroke="black" d="M1896,-122.04C1896,-143.66 1896,-177 1896,-177 1896,-177 1053.28,-177 1053.28,-177"/>
<polygon fill="black" stroke="black" points="1053.28,-173.5 1043.28,-177 1053.28,-180.5 1053.28,-173.5"/>
</g>
<!-- NavigationComponent -->
<g id="node3" class="node">
<title>NavigationComponent</title>
<polygon fill="#ffffb3" stroke="black" points="1796.54,-122 1653.46,-122 1653.46,-86 1796.54,-86 1796.54,-122"/>
<text text-anchor="middle" x="1725" y="-99.8" font-family="Times,serif" font-size="14.00">NavigationComponent</text>
</g>
<!-- NavigationComponent&#45;&gt;ComponentsModule -->
<g id="edge3" class="edge">
<title>NavigationComponent&#45;&gt;ComponentsModule</title>
<path fill="none" stroke="black" d="M1725,-122.22C1725,-142.37 1725,-172 1725,-172 1725,-172 1053.31,-172 1053.31,-172"/>
<polygon fill="black" stroke="black" points="1053.31,-168.5 1043.31,-172 1053.31,-175.5 1053.31,-168.5"/>
</g>
<!-- TypographyComponent -->
<g id="node4" class="node">
<title>TypographyComponent</title>
<polygon fill="#ffffb3" stroke="black" points="1634.76,-122 1485.24,-122 1485.24,-86 1634.76,-86 1634.76,-122"/>
<text text-anchor="middle" x="1560" y="-99.8" font-family="Times,serif" font-size="14.00">TypographyComponent</text>
</g>
<!-- TypographyComponent&#45;&gt;ComponentsModule -->
<g id="edge4" class="edge">
<title>TypographyComponent&#45;&gt;ComponentsModule</title>
<path fill="none" stroke="black" d="M1560,-122.22C1560,-140.83 1560,-167 1560,-167 1560,-167 1053.35,-167 1053.35,-167"/>
<polygon fill="black" stroke="black" points="1053.35,-163.5 1043.35,-167 1053.35,-170.5 1053.35,-163.5"/>
</g>
<!-- NucleoiconsComponent -->
<g id="node5" class="node">
<title>NucleoiconsComponent</title>
<polygon fill="#ffffb3" stroke="black" points="1466.81,-122 1315.19,-122 1315.19,-86 1466.81,-86 1466.81,-122"/>
<text text-anchor="middle" x="1391" y="-99.8" font-family="Times,serif" font-size="14.00">NucleoiconsComponent</text>
</g>
<!-- NucleoiconsComponent&#45;&gt;ComponentsModule -->
<g id="edge5" class="edge">
<title>NucleoiconsComponent&#45;&gt;ComponentsModule</title>
<path fill="none" stroke="black" d="M1391,-122.03C1391,-139.06 1391,-162 1391,-162 1391,-162 1053.44,-162 1053.44,-162"/>
<polygon fill="black" stroke="black" points="1053.44,-158.5 1043.44,-162 1053.44,-165.5 1053.44,-158.5"/>
</g>
<!-- NotificationComponent -->
<g id="node6" class="node">
<title>NotificationComponent</title>
<polygon fill="#ffffb3" stroke="black" points="1297.48,-122 1148.52,-122 1148.52,-86 1297.48,-86 1297.48,-122"/>
<text text-anchor="middle" x="1223" y="-99.8" font-family="Times,serif" font-size="14.00">NotificationComponent</text>
</g>
<!-- NotificationComponent&#45;&gt;ComponentsModule -->
<g id="edge6" class="edge">
<title>NotificationComponent&#45;&gt;ComponentsModule</title>
<path fill="none" stroke="black" d="M1223,-122.24C1223,-137.57 1223,-157 1223,-157 1223,-157 1053.33,-157 1053.33,-157"/>
<polygon fill="black" stroke="black" points="1053.33,-153.5 1043.33,-157 1053.33,-160.5 1053.33,-153.5"/>
</g>
<!-- NgbdModalComponent -->
<g id="node7" class="node">
<title>NgbdModalComponent</title>
<polygon fill="#ffffb3" stroke="black" points="1130.49,-122 981.51,-122 981.51,-86 1130.49,-86 1130.49,-122"/>
<text text-anchor="middle" x="1056" y="-99.8" font-family="Times,serif" font-size="14.00">NgbdModalComponent</text>
</g>
<!-- NgbdModalComponent&#45;&gt;ComponentsModule -->
<g id="edge7" class="edge">
<title>NgbdModalComponent&#45;&gt;ComponentsModule</title>
<path fill="none" stroke="black" d="M1012.33,-122.11C1012.33,-122.11 1012.33,-140.99 1012.33,-140.99"/>
<polygon fill="black" stroke="black" points="1008.83,-140.99 1012.33,-150.99 1015.83,-140.99 1008.83,-140.99"/>
</g>
<!-- NgbdModalContent -->
<g id="node8" class="node">
<title>NgbdModalContent</title>
<polygon fill="#ffffb3" stroke="black" points="963.99,-122 836.01,-122 836.01,-86 963.99,-86 963.99,-122"/>
<text text-anchor="middle" x="900" y="-99.8" font-family="Times,serif" font-size="14.00">NgbdModalContent</text>
</g>
<!-- NgbdModalContent&#45;&gt;ComponentsModule -->
<g id="edge8" class="edge">
<title>NgbdModalContent&#45;&gt;ComponentsModule</title>
<path fill="none" stroke="black" d="M938.42,-122.11C938.42,-122.11 938.42,-140.99 938.42,-140.99"/>
<polygon fill="black" stroke="black" points="934.92,-140.99 938.42,-150.99 941.92,-140.99 934.92,-140.99"/>
</g>
<!-- ComponentsComponent  -->
<g id="node16" class="node">
<title>ComponentsComponent </title>
<polygon fill="#fb8072" stroke="black" points="1055.61,-252 900.39,-252 900.39,-216 1055.61,-216 1055.61,-252"/>
<text text-anchor="middle" x="978" y="-229.8" font-family="Times,serif" font-size="14.00">ComponentsComponent </text>
</g>
<!-- ComponentsModule&#45;&gt;ComponentsComponent  -->
<g id="edge15" class="edge">
<title>ComponentsModule&#45;&gt;ComponentsComponent </title>
<path fill="none" stroke="black" stroke-dasharray="5,2" d="M978,-187.11C978,-187.11 978,-205.99 978,-205.99"/>
<polygon fill="black" stroke="black" points="974.5,-205.99 978,-215.99 981.5,-205.99 974.5,-205.99"/>
</g>
<!-- CommonModule -->
<g id="node10" class="node">
<title>CommonModule</title>
<polygon fill="#8dd3c7" stroke="black" points="811.67,-122 808.67,-126 787.67,-126 784.67,-122 700.33,-122 700.33,-86 811.67,-86 811.67,-122"/>
<text text-anchor="middle" x="756" y="-99.8" font-family="Times,serif" font-size="14.00">CommonModule</text>
</g>
<!-- CommonModule&#45;&gt;ComponentsModule -->
<g id="edge9" class="edge">
<title>CommonModule&#45;&gt;ComponentsModule</title>
<path fill="none" stroke="black" d="M756,-122.24C756,-137.57 756,-157 756,-157 756,-157 902.59,-157 902.59,-157"/>
<polygon fill="black" stroke="black" points="902.59,-160.5 912.59,-157 902.59,-153.5 902.59,-160.5"/>
</g>
<!-- FormsModule -->
<g id="node11" class="node">
<title>FormsModule</title>
<polygon fill="#8dd3c7" stroke="black" points="682.83,-122 679.83,-126 658.83,-126 655.83,-122 587.17,-122 587.17,-86 682.83,-86 682.83,-122"/>
<text text-anchor="middle" x="635" y="-99.8" font-family="Times,serif" font-size="14.00">FormsModule</text>
</g>
<!-- FormsModule&#45;&gt;ComponentsModule -->
<g id="edge10" class="edge">
<title>FormsModule&#45;&gt;ComponentsModule</title>
<path fill="none" stroke="black" d="M635,-122.03C635,-139.06 635,-162 635,-162 635,-162 902.68,-162 902.68,-162"/>
<polygon fill="black" stroke="black" points="902.68,-165.5 912.68,-162 902.68,-158.5 902.68,-165.5"/>
</g>
<!-- NgbModule -->
<g id="node12" class="node">
<title>NgbModule</title>
<polygon fill="#8dd3c7" stroke="black" points="569.66,-122 566.66,-126 545.66,-126 542.66,-122 486.34,-122 486.34,-86 569.66,-86 569.66,-122"/>
<text text-anchor="middle" x="528" y="-99.8" font-family="Times,serif" font-size="14.00">NgbModule</text>
</g>
<!-- NgbModule&#45;&gt;ComponentsModule -->
<g id="edge11" class="edge">
<title>NgbModule&#45;&gt;ComponentsModule</title>
<path fill="none" stroke="black" d="M528,-122.22C528,-140.83 528,-167 528,-167 528,-167 902.57,-167 902.57,-167"/>
<polygon fill="black" stroke="black" points="902.57,-170.5 912.57,-167 902.57,-163.5 902.57,-170.5"/>
</g>
<!-- NouisliderModule -->
<g id="node13" class="node">
<title>NouisliderModule</title>
<polygon fill="#8dd3c7" stroke="black" points="468.15,-122 465.15,-126 444.15,-126 441.15,-122 349.85,-122 349.85,-86 468.15,-86 468.15,-122"/>
<text text-anchor="middle" x="409" y="-99.8" font-family="Times,serif" font-size="14.00">NouisliderModule</text>
</g>
<!-- NouisliderModule&#45;&gt;ComponentsModule -->
<g id="edge12" class="edge">
<title>NouisliderModule&#45;&gt;ComponentsModule</title>
<path fill="none" stroke="black" d="M409,-122.22C409,-142.37 409,-172 409,-172 409,-172 902.73,-172 902.73,-172"/>
<polygon fill="black" stroke="black" points="902.73,-175.5 912.73,-172 902.73,-168.5 902.73,-175.5"/>
</g>
<!-- RouterModule -->
<g id="node14" class="node">
<title>RouterModule</title>
<polygon fill="#8dd3c7" stroke="black" points="331.65,-122 328.65,-126 307.65,-126 304.65,-122 234.35,-122 234.35,-86 331.65,-86 331.65,-122"/>
<text text-anchor="middle" x="283" y="-99.8" font-family="Times,serif" font-size="14.00">RouterModule</text>
</g>
<!-- RouterModule&#45;&gt;ComponentsModule -->
<g id="edge13" class="edge">
<title>RouterModule&#45;&gt;ComponentsModule</title>
<path fill="none" stroke="black" d="M283,-122.04C283,-143.66 283,-177 283,-177 283,-177 902.62,-177 902.62,-177"/>
<polygon fill="black" stroke="black" points="902.62,-180.5 912.62,-177 902.62,-173.5 902.62,-180.5"/>
</g>
<!-- JwBootstrapSwitchNg2Module -->
<g id="node15" class="node">
<title>JwBootstrapSwitchNg2Module</title>
<polygon fill="#8dd3c7" stroke="black" points="216.03,-122 213.03,-126 192.03,-126 189.03,-122 23.97,-122 23.97,-86 216.03,-86 216.03,-122"/>
<text text-anchor="middle" x="120" y="-99.8" font-family="Times,serif" font-size="14.00">JwBootstrapSwitchNg2Module</text>
</g>
<!-- JwBootstrapSwitchNg2Module&#45;&gt;ComponentsModule -->
<g id="edge14" class="edge">
<title>JwBootstrapSwitchNg2Module&#45;&gt;ComponentsModule</title>
<path fill="none" stroke="black" d="M120,-122.09C120,-145.13 120,-182 120,-182 120,-182 902.81,-182 902.81,-182"/>
<polygon fill="black" stroke="black" points="902.81,-185.5 912.81,-182 902.81,-178.5 902.81,-185.5"/>
</g>
</g>
</svg>
