<?xml version="1.0" encoding="UTF-8" standalone="no"?>
<!DOCTYPE svg PUBLIC "-//W3C//DTD SVG 1.1//EN"
 "http://www.w3.org/Graphics/SVG/1.1/DTD/svg11.dtd">
<!-- Generated by graphviz version 2.47.0 (20210316.0004)
 -->
<!-- Title: dependencies Pages: 1 -->
<svg width="504pt" height="211pt"
 viewBox="0.00 0.00 504.00 211.00" xmlns="http://www.w3.org/2000/svg" xmlns:xlink="http://www.w3.org/1999/xlink">
<g id="graph0" class="graph" transform="scale(1 1) rotate(0) translate(4 207)">
<title>dependencies</title>
<polygon fill="white" stroke="transparent" points="-4,4 -4,-207 500,-207 500,4 -4,4"/>
<text text-anchor="start" x="227.01" y="-42.4" font-family="Times-12" font-weight="bold" font-size="14.00">Legend</text>
<polygon fill="#ffffb3" stroke="transparent" points="14,-10 14,-30 34,-30 34,-10 14,-10"/>
<text text-anchor="start" x="37.63" y="-15.4" font-family="Times-12" font-size="14.00"> &#160;Declarations</text>
<polygon fill="#8dd3c7" stroke="transparent" points="127,-10 127,-30 147,-30 147,-10 127,-10"/>
<text text-anchor="start" x="150.73" y="-15.4" font-family="Times-12" font-size="14.00"> &#160;Module</text>
<polygon fill="#80b1d3" stroke="transparent" points="213,-10 213,-30 233,-30 233,-10 213,-10"/>
<text text-anchor="start" x="236.78" y="-15.4" font-family="Times-12" font-size="14.00"> &#160;Bootstrap</text>
<polygon fill="#fdb462" stroke="transparent" points="310,-10 310,-30 330,-30 330,-10 310,-10"/>
<text text-anchor="start" x="333.67" y="-15.4" font-family="Times-12" font-size="14.00"> &#160;Providers</text>
<polygon fill="#fb8072" stroke="transparent" points="406,-10 406,-30 426,-30 426,-10 406,-10"/>
<text text-anchor="start" x="429.73" y="-15.4" font-family="Times-12" font-size="14.00"> &#160;Exports</text>
<g id="clust1" class="cluster">
<title>cluster_AppRoutingModule</title>
<polygon fill="none" stroke="black" stroke-dasharray="1,5" points="16,-70 16,-195 480,-195 480,-70 16,-70"/>
</g>
<g id="clust3" class="cluster">
<title>cluster_AppRoutingModule_imports</title>
<polygon fill="none" stroke="black" points="24,-78 24,-130 472,-130 472,-78 24,-78"/>
</g>
<!-- CommonModule -->
<g id="node1" class="node">
<title>CommonModule</title>
<polygon fill="#8dd3c7" stroke="black" points="463.67,-122 460.67,-126 439.67,-126 436.67,-122 352.33,-122 352.33,-86 463.67,-86 463.67,-122"/>
<text text-anchor="middle" x="408" y="-99.8" font-family="Times,serif" font-size="14.00">CommonModule</text>
</g>
<!-- AppRoutingModule -->
<g id="node4" class="node">
<title>AppRoutingModule</title>
<polygon fill="#8dd3c7" stroke="black" points="345.27,-187 342.27,-191 321.27,-191 318.27,-187 216.73,-187 216.73,-151 345.27,-151 345.27,-187"/>
<text text-anchor="middle" x="281" y="-164.8" font-family="Times,serif" font-size="14.00">AppRoutingModule</text>
</g>
<!-- CommonModule&#45;&gt;AppRoutingModule -->
<g id="edge1" class="edge">
<title>CommonModule&#45;&gt;AppRoutingModule</title>
<path fill="none" stroke="black" d="M352.11,-104C344.88,-104 339.94,-104 339.94,-104 339.94,-104 339.94,-140.89 339.94,-140.89"/>
<polygon fill="black" stroke="black" points="336.44,-140.89 339.94,-150.89 343.44,-140.89 336.44,-140.89"/>
</g>
<!-- BrowserModule -->
<g id="node2" class="node">
<title>BrowserModule</title>
<polygon fill="#8dd3c7" stroke="black" points="334.47,-122 331.47,-126 310.47,-126 307.47,-122 227.53,-122 227.53,-86 334.47,-86 334.47,-122"/>
<text text-anchor="middle" x="281" y="-99.8" font-family="Times,serif" font-size="14.00">BrowserModule</text>
</g>
<!-- BrowserModule&#45;&gt;AppRoutingModule -->
<g id="edge2" class="edge">
<title>BrowserModule&#45;&gt;AppRoutingModule</title>
<path fill="none" stroke="black" d="M281,-122.11C281,-122.11 281,-140.99 281,-140.99"/>
<polygon fill="black" stroke="black" points="277.5,-140.99 281,-150.99 284.5,-140.99 277.5,-140.99"/>
</g>
<!-- RouterModule.forRoot(args) -->
<g id="node3" class="node">
<title>RouterModule.forRoot(args)</title>
<polygon fill="#8dd3c7" stroke="black" points="209.84,-122 206.84,-126 185.84,-126 182.84,-122 32.16,-122 32.16,-86 209.84,-86 209.84,-122"/>
<text text-anchor="middle" x="121" y="-99.8" font-family="Times,serif" font-size="14.00">RouterModule.forRoot(args)</text>
</g>
<!-- RouterModule.forRoot(args)&#45;&gt;AppRoutingModule -->
<g id="edge3" class="edge">
<title>RouterModule.forRoot(args)&#45;&gt;AppRoutingModule</title>
<path fill="none" stroke="black" d="M210.07,-104C217.4,-104 222.06,-104 222.06,-104 222.06,-104 222.06,-140.89 222.06,-140.89"/>
<polygon fill="black" stroke="black" points="218.56,-140.89 222.06,-150.89 225.56,-140.89 218.56,-140.89"/>
</g>
</g>
</svg>
