<?xml version="1.0" encoding="UTF-8" standalone="no"?>
<!DOCTYPE svg PUBLIC "-//W3C//DTD SVG 1.1//EN"
 "http://www.w3.org/Graphics/SVG/1.1/DTD/svg11.dtd">
<!-- Generated by graphviz version 2.47.0 (20210316.0004)
 -->
<!-- Title: dependencies Pages: 1 -->
<svg width="6138pt" height="358pt"
 viewBox="0.00 0.00 6138.00 358.00" xmlns="http://www.w3.org/2000/svg" xmlns:xlink="http://www.w3.org/1999/xlink">
<g id="graph0" class="graph" transform="scale(1 1) rotate(0) translate(4 354)">
<title>dependencies</title>
<polygon fill="white" stroke="transparent" points="-4,4 -4,-354 6134,-354 6134,4 -4,4"/>
<text text-anchor="start" x="3044.01" y="-42.4" font-family="Times-12" font-weight="bold" font-size="14.00">Legend</text>
<polygon fill="#ffffb3" stroke="transparent" points="2831,-10 2831,-30 2851,-30 2851,-10 2831,-10"/>
<text text-anchor="start" x="2854.63" y="-15.4" font-family="Times-12" font-size="14.00"> &#160;Declarations</text>
<polygon fill="#8dd3c7" stroke="transparent" points="2944,-10 2944,-30 2964,-30 2964,-10 2944,-10"/>
<text text-anchor="start" x="2967.73" y="-15.4" font-family="Times-12" font-size="14.00"> &#160;Module</text>
<polygon fill="#80b1d3" stroke="transparent" points="3030,-10 3030,-30 3050,-30 3050,-10 3030,-10"/>
<text text-anchor="start" x="3053.78" y="-15.4" font-family="Times-12" font-size="14.00"> &#160;Bootstrap</text>
<polygon fill="#fdb462" stroke="transparent" points="3127,-10 3127,-30 3147,-30 3147,-10 3127,-10"/>
<text text-anchor="start" x="3150.67" y="-15.4" font-family="Times-12" font-size="14.00"> &#160;Providers</text>
<polygon fill="#fb8072" stroke="transparent" points="3223,-10 3223,-30 3243,-30 3243,-10 3223,-10"/>
<text text-anchor="start" x="3246.73" y="-15.4" font-family="Times-12" font-size="14.00"> &#160;Exports</text>
<g id="clust1" class="cluster">
<title>cluster_AppModule</title>
<polygon fill="none" stroke="black" stroke-dasharray="1,5" points="8,-76 8,-342 2437,-342 2437,-76 8,-76"/>
</g>
<g id="clust2" class="cluster">
<title>cluster_AppModule_declarations</title>
<polygon fill="none" stroke="black" points="2031,-152 2031,-204 2429,-204 2429,-152 2031,-152"/>
</g>
<g id="clust6" class="cluster">
<title>cluster_AppModule_imports</title>
<polygon fill="none" stroke="black" points="156,-84 156,-204 2023,-204 2023,-84 156,-84"/>
</g>
<g id="clust8" class="cluster">
<title>cluster_AppModule_bootstrap</title>
<polygon fill="none" stroke="black" points="1345,-282 1345,-334 1469,-334 1469,-282 1345,-282"/>
</g>
<g id="clust9" class="cluster">
<title>cluster_AppModule_providers</title>
<polygon fill="none" stroke="black" points="16,-152 16,-204 148,-204 148,-152 16,-152"/>
</g>
<g id="clust10" class="cluster">
<title>cluster_AppRoutingModule</title>
<polygon fill="none" stroke="black" stroke-dasharray="1,5" points="4329,-76 4329,-144 4669,-144 4669,-76 4329,-76"/>
</g>
<g id="clust12" class="cluster">
<title>cluster_AppRoutingModule_imports</title>
<polygon fill="none" stroke="black" points="4337,-84 4337,-136 4661,-136 4661,-84 4337,-84"/>
</g>
<g id="clust16" class="cluster">
<title>cluster_ComponentsModule</title>
<polygon fill="none" stroke="black" stroke-dasharray="1,5" points="2445,-76 2445,-144 4321,-144 4321,-76 2445,-76"/>
</g>
<g id="clust17" class="cluster">
<title>cluster_ComponentsModule_declarations</title>
<polygon fill="none" stroke="black" points="2986,-84 2986,-136 4313,-136 4313,-84 2986,-84"/>
</g>
<g id="clust26" class="cluster">
<title>cluster_ComponentsModule_imports</title>
<polygon fill="none" stroke="black" points="2633,-84 2633,-136 2978,-136 2978,-84 2633,-84"/>
</g>
<g id="clust27" class="cluster">
<title>cluster_ComponentsModule_exports</title>
<polygon fill="none" stroke="black" points="2453,-84 2453,-136 2625,-136 2625,-84 2453,-84"/>
</g>
<g id="clust30" class="cluster">
<title>cluster_ExamplesModule</title>
<polygon fill="none" stroke="black" stroke-dasharray="1,5" points="4677,-76 4677,-144 6122,-144 6122,-76 4677,-76"/>
</g>
<g id="clust31" class="cluster">
<title>cluster_ExamplesModule_declarations</title>
<polygon fill="none" stroke="black" points="4987,-84 4987,-136 6114,-136 6114,-84 4987,-84"/>
</g>
<g id="clust40" class="cluster">
<title>cluster_ExamplesModule_imports</title>
<polygon fill="none" stroke="black" points="4685,-84 4685,-136 4979,-136 4979,-84 4685,-84"/>
</g>
<!-- AppComponent -->
<g id="node1" class="node">
<title>AppComponent</title>
<polygon fill="#ffffb3" stroke="black" points="2420.94,-196 2315.06,-196 2315.06,-160 2420.94,-160 2420.94,-196"/>
<text text-anchor="middle" x="2368" y="-173.8" font-family="Times,serif" font-size="14.00">AppComponent</text>
</g>
<!-- AppModule -->
<g id="node4" class="node">
<title>AppModule</title>
<polygon fill="#8dd3c7" stroke="black" points="1448.66,-261 1445.66,-265 1424.66,-265 1421.66,-261 1365.34,-261 1365.34,-225 1448.66,-225 1448.66,-261"/>
<text text-anchor="middle" x="1407" y="-238.8" font-family="Times,serif" font-size="14.00">AppModule</text>
</g>
<!-- AppComponent&#45;&gt;AppModule -->
<g id="edge1" class="edge">
<title>AppComponent&#45;&gt;AppModule</title>
<path fill="none" stroke="black" d="M2368,-196.32C2368,-219.66 2368,-257 2368,-257 2368,-257 1458.91,-257 1458.91,-257"/>
<polygon fill="black" stroke="black" points="1458.91,-253.5 1448.91,-257 1458.91,-260.5 1458.91,-253.5"/>
</g>
<!-- NavbarComponent -->
<g id="node2" class="node">
<title>NavbarComponent</title>
<polygon fill="#ffffb3" stroke="black" points="2297.03,-196 2174.97,-196 2174.97,-160 2297.03,-160 2297.03,-196"/>
<text text-anchor="middle" x="2236" y="-173.8" font-family="Times,serif" font-size="14.00">NavbarComponent</text>
</g>
<!-- NavbarComponent&#45;&gt;AppModule -->
<g id="edge2" class="edge">
<title>NavbarComponent&#45;&gt;AppModule</title>
<path fill="none" stroke="black" d="M2236,-196.16C2236,-218.35 2236,-253 2236,-253 2236,-253 1458.68,-253 1458.68,-253"/>
<polygon fill="black" stroke="black" points="1458.68,-249.5 1448.68,-253 1458.68,-256.5 1458.68,-249.5"/>
</g>
<!-- FooterComponent -->
<g id="node3" class="node">
<title>FooterComponent</title>
<polygon fill="#ffffb3" stroke="black" points="2156.88,-196 2039.12,-196 2039.12,-160 2156.88,-160 2156.88,-196"/>
<text text-anchor="middle" x="2098" y="-173.8" font-family="Times,serif" font-size="14.00">FooterComponent</text>
</g>
<!-- FooterComponent&#45;&gt;AppModule -->
<g id="edge3" class="edge">
<title>FooterComponent&#45;&gt;AppModule</title>
<path fill="none" stroke="black" d="M2098,-196.28C2098,-217.32 2098,-249 2098,-249 2098,-249 1458.67,-249 1458.67,-249"/>
<polygon fill="black" stroke="black" points="1458.67,-245.5 1448.67,-249 1458.67,-252.5 1458.67,-245.5"/>
</g>
<!-- AppComponent  -->
<g id="node22" class="node">
<title>AppComponent </title>
<polygon fill="#80b1d3" stroke="black" points="1461.44,-326 1352.56,-326 1352.56,-290 1461.44,-290 1461.44,-326"/>
<text text-anchor="middle" x="1407" y="-303.8" font-family="Times,serif" font-size="14.00">AppComponent </text>
</g>
<!-- AppModule&#45;&gt;AppComponent  -->
<g id="edge21" class="edge">
<title>AppModule&#45;&gt;AppComponent </title>
<path fill="none" stroke="black" stroke-dasharray="1,5" d="M1407,-261.11C1407,-261.11 1407,-279.99 1407,-279.99"/>
<polygon fill="black" stroke="black" points="1403.5,-279.99 1407,-289.99 1410.5,-279.99 1403.5,-279.99"/>
</g>
<!-- BrowserModule -->
<g id="node5" class="node">
<title>BrowserModule</title>
<polygon fill="#8dd3c7" stroke="black" points="712.47,-128 709.47,-132 688.47,-132 685.47,-128 605.53,-128 605.53,-92 712.47,-92 712.47,-128"/>
<text text-anchor="middle" x="659" y="-105.8" font-family="Times,serif" font-size="14.00">BrowserModule</text>
</g>
<!-- BrowserModule&#45;&gt;AppModule -->
<g id="edge4" class="edge">
<title>BrowserModule&#45;&gt;AppModule</title>
<path fill="none" stroke="black" d="M676.83,-128.19C676.83,-165.46 676.83,-247 676.83,-247 676.83,-247 1355.12,-247 1355.12,-247"/>
<polygon fill="black" stroke="black" points="1355.12,-250.5 1365.12,-247 1355.12,-243.5 1355.12,-250.5"/>
</g>
<!-- AppRoutingModule -->
<g id="node11" class="node">
<title>AppRoutingModule</title>
<polygon fill="#8dd3c7" stroke="black" points="1882.27,-196 1879.27,-200 1858.27,-200 1855.27,-196 1753.73,-196 1753.73,-160 1882.27,-160 1882.27,-196"/>
<text text-anchor="middle" x="1818" y="-173.8" font-family="Times,serif" font-size="14.00">AppRoutingModule</text>
</g>
<!-- BrowserModule&#45;&gt;AppRoutingModule -->
<g id="edge24" class="edge">
<title>BrowserModule&#45;&gt;AppRoutingModule</title>
<path fill="none" stroke="black" d="M641.17,-128.25C641.17,-142.18 641.17,-159 641.17,-159 641.17,-159 1815.18,-159 1815.18,-159 1815.18,-159 1815.18,-159.08 1815.18,-159.08"/>
<polygon fill="black" stroke="black" points="1811.68,-149.82 1815.18,-159.82 1818.68,-149.82 1811.68,-149.82"/>
</g>
<!-- NgbModule -->
<g id="node6" class="node">
<title>NgbModule</title>
<polygon fill="#8dd3c7" stroke="black" points="1714.66,-128 1711.66,-132 1690.66,-132 1687.66,-128 1631.34,-128 1631.34,-92 1714.66,-92 1714.66,-128"/>
<text text-anchor="middle" x="1673" y="-105.8" font-family="Times,serif" font-size="14.00">NgbModule</text>
</g>
<!-- NgbModule&#45;&gt;AppModule -->
<g id="edge5" class="edge">
<title>NgbModule&#45;&gt;AppModule</title>
<path fill="none" stroke="black" d="M1641.63,-128.19C1641.63,-131.54 1641.63,-134 1641.63,-134 1641.63,-134 1412.98,-134 1412.98,-134 1412.98,-134 1412.98,-214.51 1412.98,-214.51"/>
<polygon fill="black" stroke="black" points="1409.48,-214.51 1412.98,-224.51 1416.48,-214.51 1409.48,-214.51"/>
</g>
<!-- ComponentsModule -->
<g id="node9" class="node">
<title>ComponentsModule</title>
<polygon fill="#8dd3c7" stroke="black" points="1735.33,-196 1732.33,-200 1711.33,-200 1708.33,-196 1604.67,-196 1604.67,-160 1735.33,-160 1735.33,-196"/>
<text text-anchor="middle" x="1670" y="-173.8" font-family="Times,serif" font-size="14.00">ComponentsModule</text>
</g>
<!-- NgbModule&#45;&gt;ComponentsModule -->
<g id="edge36" class="edge">
<title>NgbModule&#45;&gt;ComponentsModule</title>
<path fill="none" stroke="black" d="M1652.09,-128.22C1652.09,-128.22 1652.09,-149.73 1652.09,-149.73"/>
<polygon fill="black" stroke="black" points="1648.59,-149.73 1652.09,-159.73 1655.59,-149.73 1648.59,-149.73"/>
</g>
<!-- ExamplesModule -->
<g id="node10" class="node">
<title>ExamplesModule</title>
<polygon fill="#8dd3c7" stroke="black" points="2015.26,-196 2012.26,-200 1991.26,-200 1988.26,-196 1900.74,-196 1900.74,-160 2015.26,-160 2015.26,-196"/>
<text text-anchor="middle" x="1958" y="-173.8" font-family="Times,serif" font-size="14.00">ExamplesModule</text>
</g>
<!-- NgbModule&#45;&gt;ExamplesModule -->
<g id="edge51" class="edge">
<title>NgbModule&#45;&gt;ExamplesModule</title>
<path fill="none" stroke="black" d="M1704.37,-128.19C1704.37,-136.28 1704.37,-144 1704.37,-144 1704.37,-144 1992.21,-144 1992.21,-144 1992.21,-144 1992.21,-149.81 1992.21,-149.81"/>
<polygon fill="black" stroke="black" points="1988.71,-149.81 1992.21,-159.81 1995.71,-149.81 1988.71,-149.81"/>
</g>
<!-- FormsModule -->
<g id="node7" class="node">
<title>FormsModule</title>
<polygon fill="#8dd3c7" stroke="black" points="1454.83,-128 1451.83,-132 1430.83,-132 1427.83,-128 1359.17,-128 1359.17,-92 1454.83,-92 1454.83,-128"/>
<text text-anchor="middle" x="1407" y="-105.8" font-family="Times,serif" font-size="14.00">FormsModule</text>
</g>
<!-- FormsModule&#45;&gt;AppModule -->
<g id="edge6" class="edge">
<title>FormsModule&#45;&gt;AppModule</title>
<path fill="none" stroke="black" d="M1401.02,-128.21C1401.02,-128.21 1401.02,-214.58 1401.02,-214.58"/>
<polygon fill="black" stroke="black" points="1397.52,-214.58 1401.02,-224.58 1404.52,-214.58 1397.52,-214.58"/>
</g>
<!-- FormsModule&#45;&gt;ComponentsModule -->
<g id="edge35" class="edge">
<title>FormsModule&#45;&gt;ComponentsModule</title>
<path fill="none" stroke="black" d="M1424.93,-128.03C1424.93,-145.06 1424.93,-168 1424.93,-168 1424.93,-168 1594.65,-168 1594.65,-168"/>
<polygon fill="black" stroke="black" points="1594.65,-171.5 1604.65,-168 1594.65,-164.5 1594.65,-171.5"/>
</g>
<!-- FormsModule&#45;&gt;ExamplesModule -->
<g id="edge50" class="edge">
<title>FormsModule&#45;&gt;ExamplesModule</title>
<path fill="none" stroke="black" d="M1389.07,-128.07C1389.07,-137.46 1389.07,-147 1389.07,-147 1389.07,-147 1969.31,-147 1969.31,-147 1969.31,-147 1969.31,-149.97 1969.31,-149.97"/>
<polygon fill="black" stroke="black" points="1965.81,-149.97 1969.31,-159.97 1972.81,-149.97 1965.81,-149.97"/>
</g>
<!-- RouterModule -->
<g id="node8" class="node">
<title>RouterModule</title>
<polygon fill="#8dd3c7" stroke="black" points="587.65,-128 584.65,-132 563.65,-132 560.65,-128 490.35,-128 490.35,-92 587.65,-92 587.65,-128"/>
<text text-anchor="middle" x="539" y="-105.8" font-family="Times,serif" font-size="14.00">RouterModule</text>
</g>
<!-- RouterModule&#45;&gt;AppModule -->
<g id="edge7" class="edge">
<title>RouterModule&#45;&gt;AppModule</title>
<path fill="none" stroke="black" d="M522.72,-128.14C522.72,-166.23 522.72,-251 522.72,-251 522.72,-251 1355.24,-251 1355.24,-251"/>
<polygon fill="black" stroke="black" points="1355.24,-254.5 1365.24,-251 1355.24,-247.5 1355.24,-254.5"/>
</g>
<!-- RouterModule&#45;&gt;ComponentsModule -->
<g id="edge38" class="edge">
<title>RouterModule&#45;&gt;ComponentsModule</title>
<path fill="none" stroke="black" d="M555.28,-128.11C555.28,-147.34 555.28,-175 555.28,-175 555.28,-175 1594.43,-175 1594.43,-175"/>
<polygon fill="black" stroke="black" points="1594.43,-178.5 1604.43,-175 1594.43,-171.5 1594.43,-178.5"/>
</g>
<!-- ComponentsModule&#45;&gt;AppModule -->
<g id="edge8" class="edge">
<title>ComponentsModule&#45;&gt;AppModule</title>
<path fill="none" stroke="black" d="M1604.75,-189C1535.79,-189 1436.88,-189 1436.88,-189 1436.88,-189 1436.88,-214.72 1436.88,-214.72"/>
<polygon fill="black" stroke="black" points="1433.38,-214.72 1436.88,-224.72 1440.38,-214.72 1433.38,-214.72"/>
</g>
<!-- ComponentsComponent  -->
<g id="node36" class="node">
<title>ComponentsComponent </title>
<polygon fill="#fb8072" stroke="black" points="2616.61,-128 2461.39,-128 2461.39,-92 2616.61,-92 2616.61,-128"/>
<text text-anchor="middle" x="2539" y="-105.8" font-family="Times,serif" font-size="14.00">ComponentsComponent </text>
</g>
<!-- ComponentsModule&#45;&gt;ComponentsComponent  -->
<g id="edge40" class="edge">
<title>ComponentsModule&#45;&gt;ComponentsComponent </title>
<path fill="none" stroke="black" stroke-dasharray="5,2" d="M1731.2,-159.85C1731.2,-146.26 1731.2,-130 1731.2,-130 1731.2,-130 2539,-130 2539,-130 2539,-130 2539,-129.82 2539,-129.82"/>
<polygon fill="black" stroke="black" points="2542.5,-138.15 2539,-128.15 2535.5,-138.15 2542.5,-138.15"/>
</g>
<!-- ExamplesModule&#45;&gt;AppModule -->
<g id="edge9" class="edge">
<title>ExamplesModule&#45;&gt;AppModule</title>
<path fill="none" stroke="black" d="M2006.55,-196.31C2006.55,-216.15 2006.55,-245 2006.55,-245 2006.55,-245 1458.68,-245 1458.68,-245"/>
<polygon fill="black" stroke="black" points="1458.68,-241.5 1448.68,-245 1458.68,-248.5 1458.68,-241.5"/>
</g>
<!-- AppRoutingModule&#45;&gt;AppModule -->
<g id="edge10" class="edge">
<title>AppRoutingModule&#45;&gt;AppModule</title>
<path fill="none" stroke="black" d="M1850.19,-196.02C1850.19,-213.37 1850.19,-237 1850.19,-237 1850.19,-237 1458.69,-237 1458.69,-237"/>
<polygon fill="black" stroke="black" points="1458.69,-233.5 1448.69,-237 1458.69,-240.5 1458.69,-233.5"/>
</g>
<!-- HttpClientModule -->
<g id="node12" class="node">
<title>HttpClientModule</title>
<polygon fill="#8dd3c7" stroke="black" points="282.16,-128 279.16,-132 258.16,-132 255.16,-128 163.84,-128 163.84,-92 282.16,-92 282.16,-128"/>
<text text-anchor="middle" x="223" y="-105.8" font-family="Times,serif" font-size="14.00">HttpClientModule</text>
</g>
<!-- HttpClientModule&#45;&gt;AppModule -->
<g id="edge11" class="edge">
<title>HttpClientModule&#45;&gt;AppModule</title>
<path fill="none" stroke="black" d="M223,-128.15C223,-167.67 223,-258 223,-258 223,-258 1355.21,-258 1355.21,-258"/>
<polygon fill="black" stroke="black" points="1355.21,-261.5 1365.21,-258 1355.21,-254.5 1355.21,-261.5"/>
</g>
<!-- BrowserAnimationsModule -->
<g id="node13" class="node">
<title>BrowserAnimationsModule</title>
<polygon fill="#8dd3c7" stroke="black" points="472.3,-128 469.3,-132 448.3,-132 445.3,-128 299.7,-128 299.7,-92 472.3,-92 472.3,-128"/>
<text text-anchor="middle" x="386" y="-105.8" font-family="Times,serif" font-size="14.00">BrowserAnimationsModule</text>
</g>
<!-- BrowserAnimationsModule&#45;&gt;AppModule -->
<g id="edge12" class="edge">
<title>BrowserAnimationsModule&#45;&gt;AppModule</title>
<path fill="none" stroke="black" d="M386,-128.24C386,-166.99 386,-254 386,-254 386,-254 1355.07,-254 1355.07,-254"/>
<polygon fill="black" stroke="black" points="1355.07,-257.5 1365.07,-254 1355.07,-250.5 1355.07,-257.5"/>
</g>
<!-- MatButtonModule -->
<g id="node14" class="node">
<title>MatButtonModule</title>
<polygon fill="#8dd3c7" stroke="black" points="2015.22,-128 2012.22,-132 1991.22,-132 1988.22,-128 1894.78,-128 1894.78,-92 2015.22,-92 2015.22,-128"/>
<text text-anchor="middle" x="1955" y="-105.8" font-family="Times,serif" font-size="14.00">MatButtonModule</text>
</g>
<!-- MatButtonModule&#45;&gt;AppModule -->
<g id="edge13" class="edge">
<title>MatButtonModule&#45;&gt;AppModule</title>
<path fill="none" stroke="black" d="M1894.68,-104C1889.71,-104 1886.56,-104 1886.56,-104 1886.56,-104 1886.56,-241 1886.56,-241 1886.56,-241 1458.72,-241 1458.72,-241"/>
<polygon fill="black" stroke="black" points="1458.72,-237.5 1448.72,-241 1458.72,-244.5 1458.72,-237.5"/>
</g>
<!-- MatButtonModule&#45;&gt;ExamplesModule -->
<g id="edge52" class="edge">
<title>MatButtonModule&#45;&gt;ExamplesModule</title>
<path fill="none" stroke="black" d="M2003.66,-128.22C2003.66,-128.22 2003.66,-149.73 2003.66,-149.73"/>
<polygon fill="black" stroke="black" points="2000.16,-149.73 2003.66,-159.73 2007.16,-149.73 2000.16,-149.73"/>
</g>
<!-- MatInputModule -->
<g id="node15" class="node">
<title>MatInputModule</title>
<polygon fill="#8dd3c7" stroke="black" points="841.65,-128 838.65,-132 817.65,-132 814.65,-128 730.35,-128 730.35,-92 841.65,-92 841.65,-128"/>
<text text-anchor="middle" x="786" y="-105.8" font-family="Times,serif" font-size="14.00">MatInputModule</text>
</g>
<!-- MatInputModule&#45;&gt;AppModule -->
<g id="edge14" class="edge">
<title>MatInputModule&#45;&gt;AppModule</title>
<path fill="none" stroke="black" d="M804.61,-128.21C804.61,-164.64 804.61,-243 804.61,-243 804.61,-243 1355.12,-243 1355.12,-243"/>
<polygon fill="black" stroke="black" points="1355.12,-246.5 1365.12,-243 1355.12,-239.5 1355.12,-246.5"/>
</g>
<!-- MatInputModule&#45;&gt;ExamplesModule -->
<g id="edge53" class="edge">
<title>MatInputModule&#45;&gt;ExamplesModule</title>
<path fill="none" stroke="black" d="M767.39,-128.04C767.39,-141.29 767.39,-157 767.39,-157 767.39,-157 1912.07,-157 1912.07,-157 1912.07,-157 1912.07,-157.29 1912.07,-157.29"/>
<polygon fill="black" stroke="black" points="1908.57,-149.92 1912.07,-159.92 1915.57,-149.92 1908.57,-149.92"/>
</g>
<!-- MatCardModule -->
<g id="node16" class="node">
<title>MatCardModule</title>
<polygon fill="#8dd3c7" stroke="black" points="968.81,-128 965.81,-132 944.81,-132 941.81,-128 859.19,-128 859.19,-92 968.81,-92 968.81,-128"/>
<text text-anchor="middle" x="914" y="-105.8" font-family="Times,serif" font-size="14.00">MatCardModule</text>
</g>
<!-- MatCardModule&#45;&gt;AppModule -->
<g id="edge15" class="edge">
<title>MatCardModule&#45;&gt;AppModule</title>
<path fill="none" stroke="black" d="M932.22,-128.08C932.22,-163.8 932.22,-240 932.22,-240 932.22,-240 1355.28,-240 1355.28,-240"/>
<polygon fill="black" stroke="black" points="1355.28,-243.5 1365.28,-240 1355.28,-236.5 1355.28,-243.5"/>
</g>
<!-- MatCardModule&#45;&gt;ExamplesModule -->
<g id="edge54" class="edge">
<title>MatCardModule&#45;&gt;ExamplesModule</title>
<path fill="none" stroke="black" d="M895.78,-128.04C895.78,-140.56 895.78,-155 895.78,-155 895.78,-155 1923.52,-155 1923.52,-155 1923.52,-155 1923.52,-155.49 1923.52,-155.49"/>
<polygon fill="black" stroke="black" points="1920.02,-149.88 1923.52,-159.88 1927.02,-149.88 1920.02,-149.88"/>
</g>
<!-- MatNativeDateModule -->
<g id="node17" class="node">
<title>MatNativeDateModule</title>
<polygon fill="#8dd3c7" stroke="black" points="1132.84,-128 1129.84,-132 1108.84,-132 1105.84,-128 987.16,-128 987.16,-92 1132.84,-92 1132.84,-128"/>
<text text-anchor="middle" x="1060" y="-105.8" font-family="Times,serif" font-size="14.00">MatNativeDateModule</text>
</g>
<!-- MatNativeDateModule&#45;&gt;AppModule -->
<g id="edge16" class="edge">
<title>MatNativeDateModule&#45;&gt;AppModule</title>
<path fill="none" stroke="black" d="M1084.31,-128.05C1084.31,-162.89 1084.31,-236 1084.31,-236 1084.31,-236 1355.14,-236 1355.14,-236"/>
<polygon fill="black" stroke="black" points="1355.14,-239.5 1365.14,-236 1355.14,-232.5 1355.14,-239.5"/>
</g>
<!-- MatNativeDateModule&#45;&gt;ExamplesModule -->
<g id="edge57" class="edge">
<title>MatNativeDateModule&#45;&gt;ExamplesModule</title>
<path fill="none" stroke="black" d="M1035.69,-128.49C1035.69,-140.14 1035.69,-153 1035.69,-153 1035.69,-153 1934.97,-153 1934.97,-153 1934.97,-153 1934.97,-153.68 1934.97,-153.68"/>
<polygon fill="black" stroke="black" points="1931.47,-149.83 1934.97,-159.83 1938.47,-149.83 1931.47,-149.83"/>
</g>
<!-- MatIconModule -->
<g id="node18" class="node">
<title>MatIconModule</title>
<polygon fill="#8dd3c7" stroke="black" points="1257.47,-128 1254.47,-132 1233.47,-132 1230.47,-128 1150.53,-128 1150.53,-92 1257.47,-92 1257.47,-128"/>
<text text-anchor="middle" x="1204" y="-105.8" font-family="Times,serif" font-size="14.00">MatIconModule</text>
</g>
<!-- MatIconModule&#45;&gt;AppModule -->
<g id="edge17" class="edge">
<title>MatIconModule&#45;&gt;AppModule</title>
<path fill="none" stroke="black" d="M1221.83,-128.15C1221.83,-162.36 1221.83,-233 1221.83,-233 1221.83,-233 1354.98,-233 1354.98,-233"/>
<polygon fill="black" stroke="black" points="1354.98,-236.5 1364.98,-233 1354.98,-229.5 1354.98,-236.5"/>
</g>
<!-- MatIconModule&#45;&gt;ExamplesModule -->
<g id="edge55" class="edge">
<title>MatIconModule&#45;&gt;ExamplesModule</title>
<path fill="none" stroke="black" d="M1186.17,-128.1C1186.17,-139.09 1186.17,-151 1186.17,-151 1186.17,-151 1946.42,-151 1946.42,-151 1946.42,-151 1946.42,-151.88 1946.42,-151.88"/>
<polygon fill="black" stroke="black" points="1942.92,-149.84 1946.42,-159.84 1949.92,-149.84 1942.92,-149.84"/>
</g>
<!-- JsonPipe -->
<g id="node19" class="node">
<title>JsonPipe</title>
<polygon fill="#8dd3c7" stroke="black" points="1340.78,-128 1337.78,-132 1316.78,-132 1313.78,-128 1275.22,-128 1275.22,-92 1340.78,-92 1340.78,-128"/>
<text text-anchor="middle" x="1308" y="-105.8" font-family="Times,serif" font-size="14.00">JsonPipe</text>
</g>
<!-- JsonPipe&#45;&gt;AppModule -->
<g id="edge18" class="edge">
<title>JsonPipe&#45;&gt;AppModule</title>
<path fill="none" stroke="black" d="M1318.96,-128.07C1318.96,-161.36 1318.96,-229 1318.96,-229 1318.96,-229 1355.3,-229 1355.3,-229"/>
<polygon fill="black" stroke="black" points="1355.3,-232.5 1365.3,-229 1355.3,-225.5 1355.3,-232.5"/>
</g>
<!-- JsonPipe&#45;&gt;ExamplesModule -->
<g id="edge58" class="edge">
<title>JsonPipe&#45;&gt;ExamplesModule</title>
<path fill="none" stroke="black" d="M1297.04,-128.13C1297.04,-138.31 1297.04,-149 1297.04,-149 1297.04,-149 1957.87,-149 1957.87,-149 1957.87,-149 1957.87,-150.08 1957.87,-150.08"/>
<polygon fill="black" stroke="black" points="1954.37,-149.8 1957.87,-159.8 1961.37,-149.8 1954.37,-149.8"/>
</g>
<!-- MatFormFieldModule -->
<g id="node20" class="node">
<title>MatFormFieldModule</title>
<polygon fill="#8dd3c7" stroke="black" points="1613.71,-128 1610.71,-132 1589.71,-132 1586.71,-128 1472.29,-128 1472.29,-92 1613.71,-92 1613.71,-128"/>
<text text-anchor="middle" x="1543" y="-105.8" font-family="Times,serif" font-size="14.00">MatFormFieldModule</text>
</g>
<!-- MatFormFieldModule&#45;&gt;AppModule -->
<g id="edge19" class="edge">
<title>MatFormFieldModule&#45;&gt;AppModule</title>
<path fill="none" stroke="black" d="M1538.62,-128.07C1538.62,-161.36 1538.62,-229 1538.62,-229 1538.62,-229 1459.01,-229 1459.01,-229"/>
<polygon fill="black" stroke="black" points="1459.01,-225.5 1449.01,-229 1459.01,-232.5 1459.01,-225.5"/>
</g>
<!-- MatFormFieldModule&#45;&gt;ExamplesModule -->
<g id="edge59" class="edge">
<title>MatFormFieldModule&#45;&gt;ExamplesModule</title>
<path fill="none" stroke="black" d="M1609.22,-128.32C1609.22,-136.79 1609.22,-145 1609.22,-145 1609.22,-145 1980.76,-145 1980.76,-145 1980.76,-145 1980.76,-149.96 1980.76,-149.96"/>
<polygon fill="black" stroke="black" points="1977.26,-149.96 1980.76,-159.96 1984.26,-149.96 1977.26,-149.96"/>
</g>
<!-- MatDatepickerModule -->
<g id="node21" class="node">
<title>MatDatepickerModule</title>
<polygon fill="#8dd3c7" stroke="black" points="1876.51,-128 1873.51,-132 1852.51,-132 1849.51,-128 1733.49,-128 1733.49,-92 1876.51,-92 1876.51,-128"/>
<text text-anchor="middle" x="1805" y="-105.8" font-family="Times,serif" font-size="14.00">MatDatepickerModule</text>
</g>
<!-- MatDatepickerModule&#45;&gt;AppModule -->
<g id="edge20" class="edge">
<title>MatDatepickerModule&#45;&gt;AppModule</title>
<path fill="none" stroke="black" d="M1744.39,-128.15C1744.39,-162.36 1744.39,-233 1744.39,-233 1744.39,-233 1458.71,-233 1458.71,-233"/>
<polygon fill="black" stroke="black" points="1458.71,-229.5 1448.71,-233 1458.71,-236.5 1458.71,-229.5"/>
</g>
<!-- MatDatepickerModule&#45;&gt;ExamplesModule -->
<g id="edge56" class="edge">
<title>MatDatepickerModule&#45;&gt;ExamplesModule</title>
<path fill="none" stroke="black" d="M1876.57,-116C1885.03,-116 1890.72,-116 1890.72,-116 1890.72,-116 1890.72,-178 1890.72,-178 1890.72,-178 1891.72,-178 1891.72,-178"/>
<polygon fill="black" stroke="black" points="1890.65,-181.5 1900.65,-178 1890.65,-174.5 1890.65,-181.5"/>
</g>
<!-- UserService -->
<g id="node23" class="node">
<title>UserService</title>
<ellipse fill="#fdb462" stroke="black" cx="82" cy="-178" rx="58.44" ry="18"/>
<text text-anchor="middle" x="82" y="-173.8" font-family="Times,serif" font-size="14.00">UserService</text>
</g>
<!-- UserService&#45;&gt;AppModule -->
<g id="edge22" class="edge">
<title>UserService&#45;&gt;AppModule</title>
<path fill="none" stroke="black" d="M138.9,-182C388.86,-182 1377.12,-182 1377.12,-182 1377.12,-182 1377.12,-214.7 1377.12,-214.7"/>
<polygon fill="black" stroke="black" points="1373.62,-214.7 1377.12,-224.7 1380.62,-214.7 1373.62,-214.7"/>
</g>
<!-- CommonModule -->
<g id="node24" class="node">
<title>CommonModule</title>
<polygon fill="#8dd3c7" stroke="black" points="4652.67,-128 4649.67,-132 4628.67,-132 4625.67,-128 4541.33,-128 4541.33,-92 4652.67,-92 4652.67,-128"/>
<text text-anchor="middle" x="4597" y="-105.8" font-family="Times,serif" font-size="14.00">CommonModule</text>
</g>
<!-- CommonModule&#45;&gt;ComponentsModule -->
<g id="edge34" class="edge">
<title>CommonModule&#45;&gt;ComponentsModule</title>
<path fill="none" stroke="black" d="M4597,-91.85C4597,-78.26 4597,-62 4597,-62 4597,-62 1716.87,-62 1716.87,-62 1716.87,-62 1716.87,-149.88 1716.87,-149.88"/>
<polygon fill="black" stroke="black" points="1713.37,-149.87 1716.87,-159.88 1720.37,-149.88 1713.37,-149.87"/>
</g>
<!-- CommonModule&#45;&gt;ExamplesModule -->
<g id="edge49" class="edge">
<title>CommonModule&#45;&gt;ExamplesModule</title>
<path fill="none" stroke="black" d="M4578.39,-128.01C4578.39,-154.02 4578.39,-199 4578.39,-199 4578.39,-199 1997.72,-199 1997.72,-199 1997.72,-199 1997.72,-198.71 1997.72,-198.71"/>
<polygon fill="black" stroke="black" points="2001.22,-206.08 1997.72,-196.08 1994.22,-206.08 2001.22,-206.08"/>
</g>
<!-- CommonModule&#45;&gt;AppRoutingModule -->
<g id="edge23" class="edge">
<title>CommonModule&#45;&gt;AppRoutingModule</title>
<path fill="none" stroke="black" d="M4615.61,-128.16C4615.61,-160.1 4615.61,-223 4615.61,-223 4615.61,-223 1785.81,-223 1785.81,-223 1785.81,-223 1785.81,-206.04 1785.81,-206.04"/>
<polygon fill="black" stroke="black" points="1789.31,-206.04 1785.81,-196.04 1782.31,-206.04 1789.31,-206.04"/>
</g>
<!-- RouterModule.forRoot(args) -->
<g id="node25" class="node">
<title>RouterModule.forRoot(args)</title>
<polygon fill="#8dd3c7" stroke="black" points="4522.84,-128 4519.84,-132 4498.84,-132 4495.84,-128 4345.16,-128 4345.16,-92 4522.84,-92 4522.84,-128"/>
<text text-anchor="middle" x="4434" y="-105.8" font-family="Times,serif" font-size="14.00">RouterModule.forRoot(args)</text>
</g>
<!-- RouterModule.forRoot(args)&#45;&gt;AppRoutingModule -->
<g id="edge25" class="edge">
<title>RouterModule.forRoot(args)&#45;&gt;AppRoutingModule</title>
<path fill="none" stroke="black" d="M4434,-128.33C4434,-159.86 4434,-221 4434,-221 4434,-221 1818,-221 1818,-221 1818,-221 1818,-206.49 1818,-206.49"/>
<polygon fill="black" stroke="black" points="1821.5,-206.49 1818,-196.49 1814.5,-206.49 1821.5,-206.49"/>
</g>
<!-- ComponentsComponent -->
<g id="node26" class="node">
<title>ComponentsComponent</title>
<polygon fill="#ffffb3" stroke="black" points="3146.11,-128 2993.89,-128 2993.89,-92 3146.11,-92 3146.11,-128"/>
<text text-anchor="middle" x="3070" y="-105.8" font-family="Times,serif" font-size="14.00">ComponentsComponent</text>
</g>
<!-- ComponentsComponent&#45;&gt;ComponentsModule -->
<g id="edge26" class="edge">
<title>ComponentsComponent&#45;&gt;ComponentsModule</title>
<path fill="none" stroke="black" d="M3070,-128.21C3070,-133.55 3070,-138 3070,-138 3070,-138 1673,-138 1673,-138 1673,-138 1673,-149.87 1673,-149.87"/>
<polygon fill="black" stroke="black" points="1669.5,-149.87 1673,-159.87 1676.5,-149.87 1669.5,-149.87"/>
</g>
<!-- BasicelementsComponent -->
<g id="node27" class="node">
<title>BasicelementsComponent</title>
<polygon fill="#ffffb3" stroke="black" points="4305.19,-128 4142.81,-128 4142.81,-92 4305.19,-92 4305.19,-128"/>
<text text-anchor="middle" x="4224" y="-105.8" font-family="Times,serif" font-size="14.00">BasicelementsComponent</text>
</g>
<!-- BasicelementsComponent&#45;&gt;ComponentsModule -->
<g id="edge27" class="edge">
<title>BasicelementsComponent&#45;&gt;ComponentsModule</title>
<path fill="none" stroke="black" d="M4224,-91.51C4224,-79.86 4224,-67 4224,-67 4224,-67 1718.92,-67 1718.92,-67 1718.92,-67 1718.92,-149.67 1718.92,-149.67"/>
<polygon fill="black" stroke="black" points="1715.42,-149.67 1718.92,-159.67 1722.42,-149.67 1715.42,-149.67"/>
</g>
<!-- NavigationComponent -->
<g id="node28" class="node">
<title>NavigationComponent</title>
<polygon fill="#ffffb3" stroke="black" points="4124.54,-128 3981.46,-128 3981.46,-92 4124.54,-92 4124.54,-128"/>
<text text-anchor="middle" x="4053" y="-105.8" font-family="Times,serif" font-size="14.00">NavigationComponent</text>
</g>
<!-- NavigationComponent&#45;&gt;ComponentsModule -->
<g id="edge28" class="edge">
<title>NavigationComponent&#45;&gt;ComponentsModule</title>
<path fill="none" stroke="black" d="M4053,-91.89C4053,-82.1 4053,-72 4053,-72 4053,-72 1720.97,-72 1720.97,-72 1720.97,-72 1720.97,-149.54 1720.97,-149.54"/>
<polygon fill="black" stroke="black" points="1717.47,-149.54 1720.97,-159.54 1724.47,-149.54 1717.47,-149.54"/>
</g>
<!-- TypographyComponent -->
<g id="node29" class="node">
<title>TypographyComponent</title>
<polygon fill="#ffffb3" stroke="black" points="3962.76,-128 3813.24,-128 3813.24,-92 3962.76,-92 3962.76,-128"/>
<text text-anchor="middle" x="3888" y="-105.8" font-family="Times,serif" font-size="14.00">TypographyComponent</text>
</g>
<!-- TypographyComponent&#45;&gt;ComponentsModule -->
<g id="edge29" class="edge">
<title>TypographyComponent&#45;&gt;ComponentsModule</title>
<path fill="none" stroke="black" d="M3888,-91.96C3888,-84.25 3888,-77 3888,-77 3888,-77 1723.01,-77 1723.01,-77 1723.01,-77 1723.01,-149.94 1723.01,-149.94"/>
<polygon fill="black" stroke="black" points="1719.51,-149.94 1723.01,-159.94 1726.51,-149.94 1719.51,-149.94"/>
</g>
<!-- NucleoiconsComponent -->
<g id="node30" class="node">
<title>NucleoiconsComponent</title>
<polygon fill="#ffffb3" stroke="black" points="3794.81,-128 3643.19,-128 3643.19,-92 3794.81,-92 3794.81,-128"/>
<text text-anchor="middle" x="3719" y="-105.8" font-family="Times,serif" font-size="14.00">NucleoiconsComponent</text>
</g>
<!-- NucleoiconsComponent&#45;&gt;ComponentsModule -->
<g id="edge30" class="edge">
<title>NucleoiconsComponent&#45;&gt;ComponentsModule</title>
<path fill="none" stroke="black" d="M3719,-91.79C3719,-86.45 3719,-82 3719,-82 3719,-82 1725.06,-82 1725.06,-82 1725.06,-82 1725.06,-149.94 1725.06,-149.94"/>
<polygon fill="black" stroke="black" points="1721.56,-149.94 1725.06,-159.94 1728.56,-149.94 1721.56,-149.94"/>
</g>
<!-- NotificationComponent -->
<g id="node31" class="node">
<title>NotificationComponent</title>
<polygon fill="#ffffb3" stroke="black" points="3625.48,-128 3476.52,-128 3476.52,-92 3625.48,-92 3625.48,-128"/>
<text text-anchor="middle" x="3551" y="-105.8" font-family="Times,serif" font-size="14.00">NotificationComponent</text>
</g>
<!-- NotificationComponent&#45;&gt;ComponentsModule -->
<g id="edge31" class="edge">
<title>NotificationComponent&#45;&gt;ComponentsModule</title>
<path fill="none" stroke="black" d="M3551,-91.88C3551,-89.03 3551,-87 3551,-87 3551,-87 1727.11,-87 1727.11,-87 1727.11,-87 1727.11,-149.58 1727.11,-149.58"/>
<polygon fill="black" stroke="black" points="1723.61,-149.58 1727.11,-159.58 1730.61,-149.58 1723.61,-149.58"/>
</g>
<!-- NgbdModalComponent -->
<g id="node32" class="node">
<title>NgbdModalComponent</title>
<polygon fill="#ffffb3" stroke="black" points="3458.49,-128 3309.51,-128 3309.51,-92 3458.49,-92 3458.49,-128"/>
<text text-anchor="middle" x="3384" y="-105.8" font-family="Times,serif" font-size="14.00">NgbdModalComponent</text>
</g>
<!-- NgbdModalComponent&#45;&gt;ComponentsModule -->
<g id="edge32" class="edge">
<title>NgbdModalComponent&#45;&gt;ComponentsModule</title>
<path fill="none" stroke="black" d="M3384,-128.24C3384,-135.43 3384,-142 3384,-142 3384,-142 1693.91,-142 1693.91,-142 1693.91,-142 1693.91,-149.58 1693.91,-149.58"/>
<polygon fill="black" stroke="black" points="1690.41,-149.58 1693.91,-159.58 1697.41,-149.58 1690.41,-149.58"/>
</g>
<!-- NgbdModalContent -->
<g id="node33" class="node">
<title>NgbdModalContent</title>
<polygon fill="#ffffb3" stroke="black" points="3291.99,-128 3164.01,-128 3164.01,-92 3291.99,-92 3291.99,-128"/>
<text text-anchor="middle" x="3228" y="-105.8" font-family="Times,serif" font-size="14.00">NgbdModalContent</text>
</g>
<!-- NgbdModalContent&#45;&gt;ComponentsModule -->
<g id="edge33" class="edge">
<title>NgbdModalContent&#45;&gt;ComponentsModule</title>
<path fill="none" stroke="black" d="M3228,-128.14C3228,-134.46 3228,-140 3228,-140 3228,-140 1683.46,-140 1683.46,-140 1683.46,-140 1683.46,-149.89 1683.46,-149.89"/>
<polygon fill="black" stroke="black" points="1679.96,-149.89 1683.46,-159.89 1686.96,-149.89 1679.96,-149.89"/>
</g>
<!-- NouisliderModule -->
<g id="node34" class="node">
<title>NouisliderModule</title>
<polygon fill="#8dd3c7" stroke="black" points="2759.15,-128 2756.15,-132 2735.15,-132 2732.15,-128 2640.85,-128 2640.85,-92 2759.15,-92 2759.15,-128"/>
<text text-anchor="middle" x="2700" y="-105.8" font-family="Times,serif" font-size="14.00">NouisliderModule</text>
</g>
<!-- NouisliderModule&#45;&gt;ComponentsModule -->
<g id="edge37" class="edge">
<title>NouisliderModule&#45;&gt;ComponentsModule</title>
<path fill="none" stroke="black" d="M2700,-128.17C2700,-130.45 2700,-132 2700,-132 2700,-132 1729.15,-132 1729.15,-132 1729.15,-132 1729.15,-149.82 1729.15,-149.82"/>
<polygon fill="black" stroke="black" points="1725.65,-149.82 1729.15,-159.82 1732.65,-149.82 1725.65,-149.82"/>
</g>
<!-- JwBootstrapSwitchNg2Module -->
<g id="node35" class="node">
<title>JwBootstrapSwitchNg2Module</title>
<polygon fill="#8dd3c7" stroke="black" points="2970.03,-128 2967.03,-132 2946.03,-132 2943.03,-128 2777.97,-128 2777.97,-92 2970.03,-92 2970.03,-128"/>
<text text-anchor="middle" x="2874" y="-105.8" font-family="Times,serif" font-size="14.00">JwBootstrapSwitchNg2Module</text>
</g>
<!-- JwBootstrapSwitchNg2Module&#45;&gt;ComponentsModule -->
<g id="edge39" class="edge">
<title>JwBootstrapSwitchNg2Module&#45;&gt;ComponentsModule</title>
<path fill="none" stroke="black" d="M2874,-128.06C2874,-132.49 2874,-136 2874,-136 2874,-136 1662.54,-136 1662.54,-136 1662.54,-136 1662.54,-149.94 1662.54,-149.94"/>
<polygon fill="black" stroke="black" points="1659.04,-149.94 1662.54,-159.94 1666.04,-149.94 1659.04,-149.94"/>
</g>
<!-- LoginComponent -->
<g id="node37" class="node">
<title>LoginComponent</title>
<polygon fill="#ffffb3" stroke="black" points="5109.28,-128 4994.72,-128 4994.72,-92 5109.28,-92 5109.28,-128"/>
<text text-anchor="middle" x="5052" y="-105.8" font-family="Times,serif" font-size="14.00">LoginComponent</text>
</g>
<!-- LoginComponent&#45;&gt;ExamplesModule -->
<g id="edge41" class="edge">
<title>LoginComponent&#45;&gt;ExamplesModule</title>
<path fill="none" stroke="black" d="M5052,-128.32C5052,-155.92 5052,-205 5052,-205 5052,-205 1971.24,-205 1971.24,-205 1971.24,-205 1971.24,-204.12 1971.24,-204.12"/>
<polygon fill="black" stroke="black" points="1974.74,-206.16 1971.24,-196.16 1967.74,-206.16 1974.74,-206.16"/>
</g>
<!-- LandingComponent -->
<g id="node38" class="node">
<title>LandingComponent</title>
<polygon fill="#ffffb3" stroke="black" points="6105.99,-128 5978.01,-128 5978.01,-92 6105.99,-92 6105.99,-128"/>
<text text-anchor="middle" x="6042" y="-105.8" font-family="Times,serif" font-size="14.00">LandingComponent</text>
</g>
<!-- LandingComponent&#45;&gt;ExamplesModule -->
<g id="edge42" class="edge">
<title>LandingComponent&#45;&gt;ExamplesModule</title>
<path fill="none" stroke="black" d="M6042,-128.49C6042,-159.59 6042,-219 6042,-219 6042,-219 1909.45,-219 1909.45,-219 1909.45,-219 1909.45,-206.1 1909.45,-206.1"/>
<polygon fill="black" stroke="black" points="1912.95,-206.1 1909.45,-196.1 1905.95,-206.1 1912.95,-206.1"/>
</g>
<!-- SignupComponent -->
<g id="node39" class="node">
<title>SignupComponent</title>
<polygon fill="#ffffb3" stroke="black" points="5960.51,-128 5839.49,-128 5839.49,-92 5960.51,-92 5960.51,-128"/>
<text text-anchor="middle" x="5900" y="-105.8" font-family="Times,serif" font-size="14.00">SignupComponent</text>
</g>
<!-- SignupComponent&#45;&gt;ExamplesModule -->
<g id="edge43" class="edge">
<title>SignupComponent&#45;&gt;ExamplesModule</title>
<path fill="none" stroke="black" d="M5900,-128.15C5900,-158.68 5900,-217 5900,-217 5900,-217 1918.28,-217 1918.28,-217 1918.28,-217 1918.28,-206.13 1918.28,-206.13"/>
<polygon fill="black" stroke="black" points="1921.78,-206.13 1918.28,-196.13 1914.78,-206.13 1921.78,-206.13"/>
</g>
<!-- ProfileComponent -->
<g id="node40" class="node">
<title>ProfileComponent</title>
<polygon fill="#ffffb3" stroke="black" points="5821.93,-128 5702.07,-128 5702.07,-92 5821.93,-92 5821.93,-128"/>
<text text-anchor="middle" x="5762" y="-105.8" font-family="Times,serif" font-size="14.00">ProfileComponent</text>
</g>
<!-- ProfileComponent&#45;&gt;ExamplesModule -->
<g id="edge44" class="edge">
<title>ProfileComponent&#45;&gt;ExamplesModule</title>
<path fill="none" stroke="black" d="M5762,-128.29C5762,-158.37 5762,-215 5762,-215 5762,-215 1927.1,-215 1927.1,-215 1927.1,-215 1927.1,-206.07 1927.1,-206.07"/>
<polygon fill="black" stroke="black" points="1930.6,-206.07 1927.1,-196.07 1923.6,-206.07 1930.6,-206.07"/>
</g>
<!-- CatComponent -->
<g id="node41" class="node">
<title>CatComponent</title>
<polygon fill="#ffffb3" stroke="black" points="5684.27,-128 5583.73,-128 5583.73,-92 5684.27,-92 5684.27,-128"/>
<text text-anchor="middle" x="5634" y="-105.8" font-family="Times,serif" font-size="14.00">CatComponent</text>
</g>
<!-- CatComponent&#45;&gt;ExamplesModule -->
<g id="edge45" class="edge">
<title>CatComponent&#45;&gt;ExamplesModule</title>
<path fill="none" stroke="black" d="M5634,-128.41C5634,-158.04 5634,-213 5634,-213 5634,-213 1935.93,-213 1935.93,-213 1935.93,-213 1935.93,-206.32 1935.93,-206.32"/>
<polygon fill="black" stroke="black" points="1939.43,-206.32 1935.93,-196.32 1932.43,-206.32 1939.43,-206.32"/>
</g>
<!-- RegisterComponent -->
<g id="node42" class="node">
<title>RegisterComponent</title>
<polygon fill="#ffffb3" stroke="black" points="5565.98,-128 5438.02,-128 5438.02,-92 5565.98,-92 5565.98,-128"/>
<text text-anchor="middle" x="5502" y="-105.8" font-family="Times,serif" font-size="14.00">RegisterComponent</text>
</g>
<!-- RegisterComponent&#45;&gt;ExamplesModule -->
<g id="edge46" class="edge">
<title>RegisterComponent&#45;&gt;ExamplesModule</title>
<path fill="none" stroke="black" d="M5502,-128.06C5502,-157.11 5502,-211 5502,-211 5502,-211 1944.76,-211 1944.76,-211 1944.76,-211 1944.76,-206.04 1944.76,-206.04"/>
<polygon fill="black" stroke="black" points="1948.26,-206.04 1944.76,-196.04 1941.26,-206.04 1948.26,-206.04"/>
</g>
<!-- ReservedComponent -->
<g id="node43" class="node">
<title>ReservedComponent</title>
<polygon fill="#ffffb3" stroke="black" points="5419.92,-128 5286.08,-128 5286.08,-92 5419.92,-92 5419.92,-128"/>
<text text-anchor="middle" x="5353" y="-105.8" font-family="Times,serif" font-size="14.00">ReservedComponent</text>
</g>
<!-- ReservedComponent&#45;&gt;ExamplesModule -->
<g id="edge47" class="edge">
<title>ReservedComponent&#45;&gt;ExamplesModule</title>
<path fill="none" stroke="black" d="M5353,-128.16C5353,-156.74 5353,-209 5353,-209 5353,-209 1953.59,-209 1953.59,-209 1953.59,-209 1953.59,-206.03 1953.59,-206.03"/>
<polygon fill="black" stroke="black" points="1957.09,-206.03 1953.59,-196.03 1950.09,-206.03 1957.09,-206.03"/>
</g>
<!-- ProfileOurComponent -->
<g id="node44" class="node">
<title>ProfileOurComponent</title>
<polygon fill="#ffffb3" stroke="black" points="5268.7,-128 5127.3,-128 5127.3,-92 5268.7,-92 5268.7,-128"/>
<text text-anchor="middle" x="5198" y="-105.8" font-family="Times,serif" font-size="14.00">ProfileOurComponent</text>
</g>
<!-- ProfileOurComponent&#45;&gt;ExamplesModule -->
<g id="edge48" class="edge">
<title>ProfileOurComponent&#45;&gt;ExamplesModule</title>
<path fill="none" stroke="black" d="M5198,-128.24C5198,-156.34 5198,-207 5198,-207 5198,-207 1962.41,-207 1962.41,-207 1962.41,-207 1962.41,-205.92 1962.41,-205.92"/>
<polygon fill="black" stroke="black" points="1965.91,-206.2 1962.41,-196.2 1958.91,-206.2 1965.91,-206.2"/>
</g>
<!-- ReactiveFormsModule -->
<g id="node45" class="node">
<title>ReactiveFormsModule</title>
<polygon fill="#8dd3c7" stroke="black" points="4837.3,-128 4834.3,-132 4813.3,-132 4810.3,-128 4692.7,-128 4692.7,-92 4837.3,-92 4837.3,-128"/>
<text text-anchor="middle" x="4765" y="-105.8" font-family="Times,serif" font-size="14.00">ReactiveFormsModule</text>
</g>
<!-- ReactiveFormsModule&#45;&gt;ExamplesModule -->
<g id="edge60" class="edge">
<title>ReactiveFormsModule&#45;&gt;ExamplesModule</title>
<path fill="none" stroke="black" d="M4765,-128.42C4765,-155.01 4765,-201 4765,-201 4765,-201 1988.9,-201 1988.9,-201 1988.9,-201 1988.9,-200.51 1988.9,-200.51"/>
<polygon fill="black" stroke="black" points="1992.4,-206.12 1988.9,-196.12 1985.4,-206.12 1992.4,-206.12"/>
</g>
<!-- MatSelectModule -->
<g id="node46" class="node">
<title>MatSelectModule</title>
<polygon fill="#8dd3c7" stroke="black" points="4971.31,-128 4968.31,-132 4947.31,-132 4944.31,-128 4854.69,-128 4854.69,-92 4971.31,-92 4971.31,-128"/>
<text text-anchor="middle" x="4913" y="-105.8" font-family="Times,serif" font-size="14.00">MatSelectModule</text>
</g>
<!-- MatSelectModule&#45;&gt;ExamplesModule -->
<g id="edge61" class="edge">
<title>MatSelectModule&#45;&gt;ExamplesModule</title>
<path fill="none" stroke="black" d="M4913,-128.37C4913,-155.48 4913,-203 4913,-203 4913,-203 1980.07,-203 1980.07,-203 1980.07,-203 1980.07,-202.32 1980.07,-202.32"/>
<polygon fill="black" stroke="black" points="1983.57,-206.17 1980.07,-196.17 1976.57,-206.17 1983.57,-206.17"/>
</g>
</g>
</svg>
